<?xml version="1.0" encoding="utf-8"?>
<!-- Generator: Adobe Illustrator 21.0.2, SVG Export Plug-In . SVG Version: 6.00 Build 0)  -->
<svg version="1.1" id="Lager_1" xmlns="http://www.w3.org/2000/svg" xmlns:xlink="http://www.w3.org/1999/xlink" x="0px" y="0px"
	 viewBox="0 0 1164 574.9" style="enable-background:new 0 0 1164 574.9;" xml:space="preserve">
<style type="text/css">
	.st0{fill:#FFFFFF;}
	.st1{stroke:#000000;stroke-width:4;stroke-miterlimit:10;}
	.st2{stroke:#00FFFF;stroke-width:4;stroke-miterlimit:10;}
	.st3{fill:#00F3F7;}
	.st4{stroke:#2EF6FF;stroke-width:4;stroke-miterlimit:10;}
	.st5{stroke:#FF00FF;stroke-width:4;stroke-miterlimit:10;}
	.st6{fill:#FF00FF;}
	.st7{fill:#00FFFF;}
	.st8{fill:#00FFFF;stroke:#00FFFF;stroke-width:18;stroke-linecap:square;stroke-miterlimit:2;}
	.st9{fill:#FF00FF;stroke:#FF00FF;stroke-width:9;stroke-miterlimit:2;}
	.st10{fill:#00FFFF;stroke:#00FFFF;stroke-width:18;stroke-miterlimit:10;}
	.st11{fill:#FF00FF;stroke:#FF00FF;stroke-width:9;stroke-miterlimit:10;}
		.st0Pointer{
	fill:white;
}
	.st0:hover{
	fill:yellow;
	}

	#LEAF2{
	transform-origin:right top;
	transition: transform 4s; 
	
	}
	#LEAF2:hover{
	transform:rotate(500deg)
	}

	#LEAF1{
	transform-origin:right top;
	transition: transform 3s;
	}

	#LEAF1:hover{
	transform:rotate(500deg)

	}
</style>
<g id="UX">
	<a href="../pages/ux.html" target="_parent"> <rect x="148.8" y="453.9" class="st0" width="618" height="36"/>
	<path d="M205.6,484.9V461h4.8v23.9H205.6z"/>
	<path d="M231.4,484.9l-9.8-16.1v16.1h-4.5V461h5.1l9.1,15.4V461h4.5v23.9H231.4z"/>
	<path d="M248.8,484.9v-19.7h-6.9V461h18.7v4.2h-6.9v19.7H248.8z"/>
	<path d="M266.7,484.9V461h16.9v4.2h-12.2v5.1h11.2v4.2h-11.2v6.2h12.8v4.2L266.7,484.9L266.7,484.9z"/>
	<path d="M303.5,484.9v-6.2c0-1.2-0.3-2-0.8-2.5s-1.5-0.7-2.8-0.7h-5.1v9.4h-4.7V461h11.7c1.1,0,2,0.2,2.9,0.5s1.6,0.8,2.2,1.4
		s1.1,1.3,1.4,2.2c0.3,0.9,0.5,1.8,0.5,2.8c0,1.3-0.3,2.4-0.9,3.4c-0.6,1-1.4,1.7-2.5,2.1c1,0.3,1.7,0.9,2.2,1.5
		c0.4,0.7,0.6,1.7,0.6,3.1v6.8h-4.7V484.9z M294.8,465.1v6.4h6c1.3,0,2.2-0.3,2.7-0.9s0.8-1.4,0.8-2.3s-0.3-1.7-0.8-2.3
		c-0.5-0.6-1.4-0.9-2.6-0.9L294.8,465.1L294.8,465.1z"/>
	<path d="M331.1,484.9l-1.5-4.9h-8.5l-1.6,4.9h-5.1l8.2-23.9h5.6l8.1,23.9H331.1z M325.3,466.4L325.3,466.4l-3,9.5h5.8L325.3,466.4z
		"/>
	<path d="M356.5,484.9l-6.8-10.8l-2.6,2.6v8.1h-4.7v-23.9h4.7v9.7l8.8-9.7h6.2l-9.1,9.4l9.3,14.5L356.5,484.9L356.5,484.9z"/>
	<path d="M374.5,484.9v-19.7h-6.9V461h18.7v4.2h-6.9v19.7H374.5z"/>
	<path d="M392.4,484.9V461h4.8v23.9H392.4z"/>
	<path d="M414.7,484.9c-3.5,0-6.3-1.1-8.2-3.2s-2.9-5.3-2.9-9.3c0-2,0.2-3.8,0.7-5.4s1.2-3,2.1-4.1s2.1-2,3.5-2.6s2.9-0.9,4.7-0.9
		c1.8,0,3.3,0.3,4.7,0.9c1.4,0.6,2.5,1.4,3.4,2.6c0.9,1.1,1.6,2.5,2.1,4.1s0.7,3.5,0.7,5.5c0,4.1-0.9,7.2-2.8,9.3
		C421,483.9,418.3,484.9,414.7,484.9z M414.7,480.6c0.9,0,1.7-0.2,2.4-0.5c0.8-0.3,1.4-0.8,2-1.5s1-1.5,1.3-2.5s0.5-2.3,0.5-3.7
		c0-2.8-0.5-5-1.6-6.4c-1.1-1.5-2.6-2.2-4.6-2.2s-3.6,0.7-4.7,2.2s-1.6,3.6-1.6,6.4s0.5,4.9,1.6,6.2
		C411.2,480,412.7,480.6,414.7,480.6z"/>
	<path d="M446.4,484.9l-9.8-16.1v16.1h-4.5V461h5.1l9.1,15.4V461h4.5v23.9H446.4z"/>
	<path d="M470.6,467.2c-0.1-1.2-0.5-2.1-1.3-2.7c-0.7-0.6-1.8-0.9-3.3-0.9c-2.7,0-4.1,1-4.1,2.9c0,0.7,0.3,1.3,0.8,1.7
		c0.6,0.5,1.5,0.9,2.7,1.2c1.5,0.4,2.8,0.7,3.8,1c1.1,0.3,2.1,0.7,3,1.1c0.5,0.2,1,0.5,1.4,0.8s0.8,0.7,1.1,1.2
		c0.3,0.5,0.6,1.1,0.7,1.7c0.2,0.7,0.3,1.5,0.3,2.4c0,1.2-0.2,2.2-0.7,3.1s-1.1,1.6-1.9,2.2s-1.7,1.1-2.8,1.4
		c-1.1,0.3-2.2,0.5-3.4,0.5c-3.3,0-5.9-0.7-7.5-2c-1.7-1.3-2.6-3.3-2.7-6h4.6c0,1.2,0.5,2.2,1.4,2.9s2.1,1.1,3.5,1.1
		c1.5,0,2.7-0.3,3.5-0.9s1.2-1.4,1.2-2.3c0-0.4,0-0.7-0.1-1.1c-0.1-0.3-0.3-0.6-0.5-0.9c-0.3-0.3-0.6-0.5-1.1-0.7s-1.1-0.4-1.8-0.6
		c-1.8-0.4-3.3-0.8-4.5-1.2c-1.3-0.4-2.3-0.9-3.2-1.5s-1.4-1.3-1.8-2.1c-0.4-0.8-0.6-1.9-0.6-3.2c0-1,0.2-1.9,0.5-2.8
		s0.9-1.6,1.6-2.2s1.6-1.1,2.6-1.5s2.3-0.6,3.7-0.6c1.4,0,2.6,0.2,3.7,0.6s2.1,0.9,2.9,1.6s1.4,1.5,1.8,2.5s0.7,2,0.7,3.2
		L470.6,467.2L470.6,467.2z"/>
	<path d="M482.1,484.9V461h8.9c1.5,0,3,0.3,4.3,0.8s2.4,1.3,3.4,2.3c0.9,1,1.7,2.2,2.2,3.7c0.5,1.4,0.8,3.1,0.8,4.9s-0.2,3.5-0.7,5
		s-1.1,2.8-2,3.9s-1.9,1.9-3.1,2.5s-2.6,0.9-4,0.9L482.1,484.9L482.1,484.9z M490.7,480.8c2.1,0,3.6-0.7,4.6-2
		c0.9-1.4,1.4-3.4,1.4-6.1c0-1.3-0.1-2.5-0.3-3.5c-0.2-1-0.6-1.7-1.1-2.4c-0.5-0.6-1.2-1.1-2-1.3c-0.8-0.3-1.8-0.4-2.9-0.4h-3.6
		v15.7L490.7,480.8L490.7,480.8z"/>
	<path d="M508.1,484.9V461H525v4.2h-12.2v5.1H524v4.2h-11.2v6.2h12.8v4.2L508.1,484.9L508.1,484.9z"/>
	<path d="M544.5,467.2c-0.1-1.2-0.5-2.1-1.3-2.7c-0.7-0.6-1.8-0.9-3.3-0.9c-2.7,0-4.1,1-4.1,2.9c0,0.7,0.3,1.3,0.8,1.7
		c0.6,0.5,1.5,0.9,2.7,1.2c1.5,0.4,2.8,0.7,3.8,1c1.1,0.3,2.1,0.7,3,1.1c0.5,0.2,1,0.5,1.4,0.8c0.4,0.3,0.8,0.7,1.1,1.2
		c0.3,0.5,0.6,1.1,0.7,1.7c0.2,0.7,0.3,1.5,0.3,2.4c0,1.2-0.2,2.2-0.7,3.1s-1.1,1.6-1.9,2.2s-1.7,1.1-2.8,1.4s-2.2,0.5-3.4,0.5
		c-3.3,0-5.9-0.7-7.5-2c-1.7-1.3-2.6-3.3-2.7-6h4.6c0,1.2,0.5,2.2,1.4,2.9c0.9,0.7,2.1,1.1,3.5,1.1c1.5,0,2.7-0.3,3.5-0.9
		s1.2-1.4,1.2-2.3c0-0.4,0-0.7-0.1-1.1c-0.1-0.3-0.3-0.6-0.5-0.9c-0.3-0.3-0.6-0.5-1.1-0.7s-1.1-0.4-1.8-0.6
		c-1.8-0.4-3.3-0.8-4.5-1.2c-1.3-0.4-2.3-0.9-3.2-1.5s-1.4-1.3-1.8-2.1c-0.4-0.8-0.6-1.9-0.6-3.2c0-1,0.2-1.9,0.5-2.8
		s0.9-1.6,1.6-2.2s1.6-1.1,2.6-1.5s2.3-0.6,3.7-0.6s2.6,0.2,3.7,0.6c1.1,0.4,2.1,0.9,2.8,1.6c0.8,0.7,1.4,1.5,1.8,2.5
		c0.4,1,0.7,2,0.7,3.2L544.5,467.2L544.5,467.2z"/>
	<path d="M555.9,484.9V461h4.8v23.9H555.9z"/>
	<path d="M584.6,484.1l-0.1-2.4c-0.6,1-1.4,1.8-2.7,2.4c-1.2,0.6-2.6,0.8-4.2,0.8c-1.6,0-3-0.4-4.3-1.1s-2.4-1.7-3.3-2.8
		c-0.9-1.2-1.6-2.6-2.1-4.1s-0.7-3.2-0.7-4.8c0-1.8,0.2-3.4,0.7-5c0.5-1.5,1.2-2.9,2.1-4c0.9-1.2,2.1-2.1,3.5-2.7c1.4-0.6,3-1,4.9-1
		c1.4,0,2.6,0.2,3.8,0.6c1.2,0.4,2.2,1,3.1,1.7c0.9,0.7,1.6,1.6,2.1,2.6s0.9,2.1,1,3.3h-4.8c-0.1-0.6-0.3-1.1-0.6-1.6
		c-0.3-0.5-0.7-0.9-1.1-1.3c-0.5-0.4-1-0.6-1.6-0.9c-0.6-0.2-1.2-0.3-1.9-0.3c-1.9,0-3.5,0.8-4.6,2.2c-1.1,1.4-1.7,3.7-1.7,6.5
		c0,1,0.1,2,0.4,3c0.2,1,0.6,1.9,1.1,2.7c0.5,0.8,1.2,1.5,2,2s1.8,0.8,2.9,0.8c0.8,0,1.5-0.1,2.2-0.4s1.3-0.7,1.8-1.2
		s0.9-1.1,1.2-1.7c0.3-0.7,0.4-1.4,0.4-2.1H579v-4h9.6v12.9h-4V484.1z"/>
	<path d="M612.8,484.9l-9.8-16.1v16.1h-4.5V461h5.1l9.1,15.4V461h4.5v23.9H612.8z"/>
	<path d="M623.9,484.9V461h16.9v4.2h-12.2v5.1h11.2v4.2h-11.2v6.2h12.8v4.2L623.9,484.9L623.9,484.9z"/>
	<path d="M660.7,484.9v-6.2c0-1.2-0.3-2-0.8-2.5s-1.5-0.7-2.8-0.7H652v9.4h-4.7V461h11.6c1.1,0,2,0.2,2.9,0.5s1.6,0.8,2.2,1.4
		c0.6,0.6,1.1,1.3,1.4,2.2c0.3,0.9,0.5,1.8,0.5,2.8c0,1.3-0.3,2.4-0.9,3.4c-0.6,1-1.4,1.7-2.5,2.1c1,0.3,1.7,0.9,2.2,1.5
		c0.4,0.7,0.6,1.7,0.6,3.1v6.8h-4.6V484.9z M652,465.1v6.4h6c1.3,0,2.2-0.3,2.7-0.9s0.8-1.4,0.8-2.3s-0.3-1.7-0.8-2.3
		c-0.5-0.6-1.4-0.9-2.6-0.9L652,465.1L652,465.1z"/>
	<path d="M685.1,484.9l6.6-23.9h3.8l-6.7,23.9H685.1z"/>
	<path d="M728.7,460.2h4.9v15.9c0,2.9-0.8,5.1-2.5,6.6c-1.6,1.5-4,2.2-7,2.2c-2.8,0-5-0.7-6.6-2.1s-2.4-3.5-2.4-6.4v-16.2h4.9v15.7
		c0,1.5,0.4,2.7,1.1,3.5c0.7,0.9,1.7,1.3,3,1.3c3.1,0,4.6-1.5,4.6-4.6V460.2z"/>
	<path d="M753.9,484.9l-4.4-8.2l-4.6,8.2h-5.6l7.4-12.2l-7-11.7h5.7l4.1,7.7l4.2-7.7h5.6l-7,11.5l7.5,12.4L753.9,484.9L753.9,484.9z
		"/>
	<g>
		<g>
			<polygon class="st0Pointer" points="167.5,460.1 171.6,460.1 171.7,462.9 170.9,463.4 171,464.1 172.3,464.6 189.7,465.1 189.6,468.2 
				177.7,468.7 177.5,478.4 176.8,482.6 173,483.9 161.9,483.9 158.3,482.9 154.8,481.7 154.6,468.7 156.1,467.6 156.8,467 
				158.3,465.9 159.2,465.2 159.7,464.7 161.4,463.3 163.3,463 163.6,462.4 166.5,461.1 			"/>
		</g>
		<g>
			<g>
				<rect x="167.1" y="464.6" width="22" height="0.1"/>
				<polygon points="189.6,464.1 166.6,464.1 166.6,465.1 189.6,465.1 				"/>
			</g>
			<g>
				<rect x="190.1" y="465.6" width="0.2" height="2.2"/>
				<polygon points="190.8,465.1 189.6,465.1 189.6,468.3 190.8,468.3 				"/>
			</g>
			<g>
				<rect x="172.6" y="468.7" width="16.5" height="0.2"/>
				<polygon points="189.6,468.2 172.1,468.2 172.1,469.4 189.6,469.4 				"/>
			</g>
			<g>
				<rect x="177.9" y="469.1" width="0.2" height="8.9"/>
				<polygon points="178.6,468.7 177.4,468.7 177.4,478.6 178.6,478.6 				"/>
			</g>
			<g>
				<rect x="174.6" y="473.8" width="3.2" height="0.2"/>
				<polygon points="178.2,473.3 174,473.3 174,474.5 178.2,474.5 				"/>
			</g>
			<g>
				<rect x="176.8" y="478.9" width="0.2" height="3.2"/>
				<polygon points="177.5,478.4 176.3,478.4 176.3,482.6 177.5,482.6 				"/>
			</g>
			<g>
				<rect x="173.8" y="483.1" width="3.2" height="0.2"/>
				<polygon points="177.5,482.6 173.3,482.6 173.3,483.7 177.5,483.7 				"/>
			</g>
			<g>
				<rect x="173.6" y="478.9" width="3.2" height="0.2"/>
				<polygon points="177.3,478.4 173.1,478.4 173.1,479.6 177.3,479.6 				"/>
			</g>
			<g>
				<rect x="172.1" y="460.6" width="0.2" height="1.8"/>
				<polygon points="172.9,460.1 171.6,460.1 171.6,462.9 172.9,462.9 				"/>
			</g>
			<g>
				<rect x="168" y="459.5" width="3.2" height="0.2"/>
				<polygon points="171.6,459 167.5,459 167.5,460.1 171.6,460.1 				"/>
			</g>
			<g>
				<rect x="164" y="461.8" width="1.5" height="0.2"/>
				<polygon points="166,461.3 163.6,461.3 163.6,462.5 166,462.5 				"/>
			</g>
			<g>
				<rect x="161.6" y="462.9" width="1.5" height="0.2"/>
				<polygon points="163.6,462.4 161,462.4 161,463.6 163.6,463.6 				"/>
			</g>
			<g>
				<rect x="166.6" y="460.7" width="0.5" height="0.2"/>
				<polygon points="167.6,460.1 166,460.1 166,461.3 167.6,461.3 				"/>
			</g>
			<g>
				<rect x="170.7" y="463.4" width="0.5" height="0.2"/>
				<polygon points="171.7,462.9 170.2,462.9 170.2,464.1 171.7,464.1 				"/>
			</g>
			<g>
				<rect x="160" y="464.1" width="0.5" height="0.2"/>
				<polygon points="161,463.6 159.6,463.6 159.6,464.7 161,464.7 				"/>
			</g>
			<g>
				<rect x="162.5" y="484.2" width="10.5" height="0.2"/>
				<polygon points="173.5,483.7 162,483.7 162,484.9 173.5,484.9 				"/>
			</g>
			<g>
				<rect x="158.3" y="483.2" width="3.2" height="0.2"/>
				<polygon points="162,482.7 157.8,482.7 157.8,483.9 162,483.9 				"/>
			</g>
			<g>
				<rect x="154.3" y="482.1" width="3.2" height="0.2"/>
				<polygon points="158,481.6 153.8,481.6 153.8,482.7 158,482.7 				"/>
			</g>
			<g>
				<rect x="154.3" y="469.7" width="0.2" height="11.5"/>
				<polygon points="155,469.1 153.8,469.1 153.8,481.7 155,481.7 				"/>
			</g>
			<g>
				<rect x="158.6" y="465.2" width="0.5" height="0.2"/>
				<polygon points="159.6,464.7 158.1,464.7 158.1,465.9 159.6,465.9 				"/>
			</g>
			<g>
				<rect x="157.2" y="466.4" width="0.5" height="0.2"/>
				<polygon points="158.2,465.9 156.7,465.9 156.7,467.1 158.2,467.1 				"/>
			</g>
			<g>
				<rect x="155.8" y="467.6" width="0.5" height="0.2"/>
				<polygon points="156.8,467.1 155.3,467.1 155.3,468.2 156.8,468.2 				"/>
			</g>
			<g>
				<rect x="154.3" y="468.7" width="0.5" height="0.2"/>
				<polygon points="155.3,468.1 153.8,468.1 153.8,469.3 155.3,469.3 				"/>
			</g>
			<g>
				<rect x="159.2" y="478.6" width="7.8" height="0.2"/>
				<polygon points="167.6,478.1 158.7,478.1 158.7,479.2 167.6,479.2 				"/>
			</g>
			<g>
				<rect x="159.2" y="474.8" width="7.8" height="0.2"/>
				<polygon points="167.6,474.3 158.7,474.3 158.7,475.5 167.6,475.5 				"/>
			</g>
			<g>
				<rect x="159.2" y="471.1" width="7.8" height="0.2"/>
				<polygon points="167.6,470.6 158.7,470.6 158.7,471.7 167.6,471.7 				"/>
			</g>
		</g>
	</g></a>
</g>
<g id="FRONTEND">
	<a href="../pages/frontend.html" target="_parent"> <rect x="148.8" y="406.9" class="st0" width="527" height="36"/>
	<path d="M210.4,427.2v10.1h-4.8v-23.9h16.3v4.2h-11.5v5.4h10.1v4.2L210.4,427.2L210.4,427.2z"/>
	<path d="M241.4,437.3v-6.2c0-1.2-0.3-2-0.8-2.5s-1.5-0.7-2.8-0.7h-5.1v9.4H228v-23.9h11.6c1.1,0,2,0.2,2.9,0.5
		c0.9,0.3,1.6,0.8,2.2,1.4c0.6,0.6,1.1,1.3,1.4,2.2c0.3,0.9,0.5,1.8,0.5,2.8c0,1.3-0.3,2.4-0.9,3.4c-0.6,1-1.4,1.7-2.5,2.1
		c1,0.3,1.7,0.9,2.2,1.5c0.4,0.7,0.6,1.7,0.6,3.1v6.8h-4.6V437.3z M232.7,417.6v6.4h6c1.3,0,2.2-0.3,2.7-0.9s0.8-1.4,0.8-2.3
		s-0.3-1.7-0.8-2.3c-0.5-0.6-1.4-0.9-2.6-0.9L232.7,417.6L232.7,417.6z"/>
	<path d="M263.8,438.1c-3.5,0-6.3-1.1-8.2-3.2c-1.9-2.1-2.9-5.3-2.9-9.3c0-2,0.2-3.8,0.7-5.4s1.2-3,2.1-4.1c0.9-1.1,2.1-2,3.5-2.6
		s2.9-0.9,4.7-0.9c1.8,0,3.3,0.3,4.7,0.9s2.5,1.4,3.4,2.6c0.9,1.1,1.6,2.5,2.1,4.1s0.7,3.5,0.7,5.5c0,4.1-0.9,7.2-2.8,9.3
		C270.1,437.1,267.3,438.1,263.8,438.1z M263.8,433.9c0.9,0,1.7-0.2,2.4-0.5c0.8-0.3,1.4-0.8,2-1.5s1-1.5,1.3-2.5
		c0.3-1,0.5-2.3,0.5-3.7c0-2.8-0.5-5-1.6-6.4c-1.1-1.5-2.6-2.2-4.6-2.2s-3.6,0.7-4.7,2.2s-1.6,3.6-1.6,6.4s0.5,4.9,1.6,6.2
		C260.2,433.2,261.8,433.9,263.8,433.9z"/>
	<path d="M295.5,437.3l-9.8-16.1v16.1h-4.5v-23.9h5.1l9.1,15.4v-15.4h4.5v23.9H295.5z"/>
	<path d="M312.9,437.3v-19.7H306v-4.2h18.7v4.2h-6.9v19.7H312.9z"/>
	<path d="M330.8,437.3v-23.9h16.9v4.2h-12.2v5.1h11.2v4.2h-11.2v6.2h12.8v4.2L330.8,437.3L330.8,437.3z"/>
	<path d="M368.5,437.3l-9.8-16.1v16.1h-4.5v-23.9h5.1l9.1,15.4v-15.4h4.5v23.9H368.5z"/>
	<path d="M379.7,437.3v-23.9h8.9c1.5,0,3,0.3,4.3,0.8s2.4,1.3,3.4,2.3c0.9,1,1.7,2.2,2.2,3.7c0.5,1.4,0.8,3.1,0.8,4.9
		s-0.2,3.5-0.7,5s-1.1,2.8-2,3.9s-1.9,1.9-3.1,2.5s-2.6,0.9-4,0.9L379.7,437.3L379.7,437.3z M388.3,433.3c2.1,0,3.6-0.7,4.6-2
		c0.9-1.4,1.4-3.4,1.4-6.1c0-1.3-0.1-2.5-0.3-3.5c-0.2-1-0.6-1.7-1.1-2.4c-0.5-0.6-1.2-1.1-2-1.3c-0.8-0.3-1.8-0.4-2.9-0.4h-3.6
		v15.7L388.3,433.3L388.3,433.3z"/>
	<path d="M405.3,427.2v-3.6h8.6v3.6H405.3z"/>
	<path d="M433.9,413h4.9v15.9c0,2.9-0.8,5.1-2.5,6.6c-1.6,1.5-4,2.2-7,2.2c-2.8,0-5-0.7-6.6-2.1s-2.4-3.5-2.4-6.4V413h4.9v15.8
		c0,1.5,0.4,2.7,1.1,3.5c0.7,0.9,1.7,1.3,3,1.3c3.1,0,4.6-1.5,4.6-4.6V413z"/>
	<path d="M451.8,437.3v-19.7h-6.9v-4.2h18.7v4.2h-6.9v19.7H451.8z"/>
	<path d="M476.8,437.3l-7.8-23.9h5.1l5,16.8l5-16.8h5l-7.8,23.9H476.8z"/>
	<path d="M495.2,437.3v-23.9h16.9v4.2h-12.2v5.1h11.2v4.2h-11.2v6.2h12.8v4.2L495.2,437.3L495.2,437.3z"/>
	<path d="M538.9,429.1c-0.3,1.4-0.7,2.6-1.2,3.7c-0.6,1.1-1.2,2.1-2.1,2.8c-0.8,0.8-1.8,1.4-2.9,1.8c-1.1,0.4-2.3,0.6-3.7,0.6
		c-1.5,0-2.9-0.3-4.2-0.8s-2.4-1.3-3.4-2.4c-0.9-1.1-1.7-2.4-2.2-3.9s-0.8-3.4-0.8-5.4s0.2-3.8,0.7-5.5c0.5-1.6,1.2-3,2.1-4.1
		c0.9-1.1,2-2,3.4-2.6c1.3-0.6,2.8-0.9,4.4-0.9c1.4,0,2.7,0.2,3.9,0.7c1.2,0.4,2.2,1.1,3,1.8c0.8,0.8,1.5,1.7,2,2.8
		c0.5,1.1,0.8,2.2,0.9,3.4H534c-0.3-1.4-0.9-2.4-1.9-3.2c-0.9-0.8-2-1.1-3.1-1.1c-2,0-3.5,0.8-4.4,2.2c-0.9,1.5-1.4,3.6-1.4,6.2
		c0,2.7,0.5,4.7,1.4,6.2c0.9,1.5,2.3,2.2,4.2,2.2c1.4,0,2.6-0.4,3.4-1.2c0.9-0.8,1.5-2,1.8-3.5h4.9V429.1z"/>
	<path d="M558.9,437.3l-6.8-10.8l-2.6,2.6v8.1h-4.7v-23.9h4.7v9.7l8.8-9.7h6.2l-9.1,9.4l9.3,14.5L558.9,437.3L558.9,437.3z"/>
	<path d="M570.8,437.3v-23.9h4.8v19.5H587v4.4H570.8z"/>
	<path d="M609,437.3l-1.5-4.9H599l-1.6,4.9h-5.1l8.2-23.9h5.6l8.1,23.9H609z M603.3,418.8L603.3,418.8l-3,9.5h5.8L603.3,418.8z"/>
	<path d="M633.7,437.3v-6.2c0-1.2-0.3-2-0.8-2.5s-1.5-0.7-2.8-0.7H625v9.4h-4.7v-23.9h11.6c1.1,0,2,0.2,2.9,0.5
		c0.9,0.3,1.6,0.8,2.2,1.4c0.6,0.6,1.1,1.3,1.4,2.2c0.3,0.9,0.5,1.8,0.5,2.8c0,1.3-0.3,2.4-0.9,3.4c-0.6,1-1.4,1.7-2.5,2.1
		c1,0.3,1.7,0.9,2.2,1.5c0.4,0.7,0.6,1.7,0.6,3.1v6.8h-4.6V437.3z M625,417.6v6.4h6c1.3,0,2.2-0.3,2.7-0.9s0.8-1.4,0.8-2.3
		s-0.3-1.7-0.8-2.3c-0.5-0.6-1.4-0.9-2.6-0.9L625,417.6L625,417.6z"/>
	<path d="M645.3,437.3v-23.9h16.9v4.2H650v5.1h11.2v4.2H650v6.2h12.8v4.2L645.3,437.3L645.3,437.3z"/>
	<g>
		<g>
			<polygon class="st0Pointer" points="167.5,413.1 171.6,413.1 171.7,415.9 170.9,416.4 171,417.1 172.3,417.6 189.7,418.1 189.6,421.2 
				177.7,421.7 177.5,431.4 176.8,435.6 173,436.9 161.9,436.9 158.3,435.9 154.8,434.7 154.6,421.7 156.1,420.6 156.8,420 
				158.3,418.9 159.2,418.2 159.7,417.7 161.4,416.3 163.3,416 163.6,415.4 166.5,414.1 			"/>
		</g>
		<g>
			<g>
				<rect x="167.1" y="417.6" width="22" height="0.1"/>
				<polygon points="189.6,417.1 166.6,417.1 166.6,418.1 189.6,418.1 				"/>
			</g>
			<g>
				<rect x="190.1" y="418.6" width="0.2" height="2.2"/>
				<polygon points="190.8,418.1 189.6,418.1 189.6,421.3 190.8,421.3 				"/>
			</g>
			<g>
				<rect x="172.6" y="421.7" width="16.5" height="0.2"/>
				<polygon points="189.6,421.2 172.1,421.2 172.1,422.4 189.6,422.4 				"/>
			</g>
			<g>
				<rect x="177.9" y="422.1" width="0.2" height="8.9"/>
				<polygon points="178.6,421.7 177.4,421.7 177.4,431.6 178.6,431.6 				"/>
			</g>
			<g>
				<rect x="174.6" y="426.8" width="3.2" height="0.2"/>
				<polygon points="178.2,426.3 174,426.3 174,427.5 178.2,427.5 				"/>
			</g>
			<g>
				<rect x="176.8" y="431.9" width="0.2" height="3.2"/>
				<polygon points="177.5,431.4 176.3,431.4 176.3,435.6 177.5,435.6 				"/>
			</g>
			<g>
				<rect x="173.8" y="436.1" width="3.2" height="0.2"/>
				<polygon points="177.5,435.6 173.3,435.6 173.3,436.7 177.5,436.7 				"/>
			</g>
			<g>
				<rect x="173.6" y="431.9" width="3.2" height="0.2"/>
				<polygon points="177.3,431.4 173.1,431.4 173.1,432.6 177.3,432.6 				"/>
			</g>
			<g>
				<rect x="172.1" y="413.6" width="0.2" height="1.8"/>
				<polygon points="172.9,413.1 171.6,413.1 171.6,415.9 172.9,415.9 				"/>
			</g>
			<g>
				<rect x="168" y="412.5" width="3.2" height="0.2"/>
				<polygon points="171.6,412 167.5,412 167.5,413.1 171.6,413.1 				"/>
			</g>
			<g>
				<rect x="164" y="414.8" width="1.5" height="0.2"/>
				<polygon points="166,414.3 163.6,414.3 163.6,415.5 166,415.5 				"/>
			</g>
			<g>
				<rect x="161.6" y="415.9" width="1.5" height="0.2"/>
				<polygon points="163.6,415.4 161,415.4 161,416.6 163.6,416.6 				"/>
			</g>
			<g>
				<rect x="166.6" y="413.7" width="0.5" height="0.2"/>
				<polygon points="167.6,413.1 166,413.1 166,414.3 167.6,414.3 				"/>
			</g>
			<g>
				<rect x="170.7" y="416.4" width="0.5" height="0.2"/>
				<polygon points="171.7,415.9 170.2,415.9 170.2,417.1 171.7,417.1 				"/>
			</g>
			<g>
				<rect x="160" y="417.1" width="0.5" height="0.2"/>
				<polygon points="161,416.6 159.6,416.6 159.6,417.7 161,417.7 				"/>
			</g>
			<g>
				<rect x="162.5" y="437.2" width="10.5" height="0.2"/>
				<polygon points="173.5,436.7 162,436.7 162,437.9 173.5,437.9 				"/>
			</g>
			<g>
				<rect x="158.3" y="436.2" width="3.2" height="0.2"/>
				<polygon points="162,435.7 157.8,435.7 157.8,436.9 162,436.9 				"/>
			</g>
			<g>
				<rect x="154.3" y="435.1" width="3.2" height="0.2"/>
				<polygon points="158,434.6 153.8,434.6 153.8,435.7 158,435.7 				"/>
			</g>
			<g>
				<rect x="154.3" y="422.7" width="0.2" height="11.5"/>
				<polygon points="155,422.1 153.8,422.1 153.8,434.7 155,434.7 				"/>
			</g>
			<g>
				<rect x="158.6" y="418.2" width="0.5" height="0.2"/>
				<polygon points="159.6,417.7 158.1,417.7 158.1,418.9 159.6,418.9 				"/>
			</g>
			<g>
				<rect x="157.2" y="419.4" width="0.5" height="0.2"/>
				<polygon points="158.2,418.9 156.7,418.9 156.7,420.1 158.2,420.1 				"/>
			</g>
			<g>
				<rect x="155.8" y="420.6" width="0.5" height="0.2"/>
				<polygon points="156.8,420.1 155.3,420.1 155.3,421.2 156.8,421.2 				"/>
			</g>
			<g>
				<rect x="154.3" y="421.7" width="0.5" height="0.2"/>
				<polygon points="155.3,421.1 153.8,421.1 153.8,422.3 155.3,422.3 				"/>
			</g>
			<g>
				<rect x="159.2" y="431.6" width="7.8" height="0.2"/>
				<polygon points="167.6,431.1 158.7,431.1 158.7,432.2 167.6,432.2 				"/>
			</g>
			<g>
				<rect x="159.2" y="427.8" width="7.8" height="0.2"/>
				<polygon points="167.6,427.3 158.7,427.3 158.7,428.5 167.6,428.5 				"/>
			</g>
			<g>
				<rect x="159.2" y="424.1" width="7.8" height="0.2"/>
				<polygon points="167.6,423.6 158.7,423.6 158.7,424.7 167.6,424.7 				"/>
			</g>
		</g>
	</g></a>
</g>
<g id="LEAF1">
	<g>
		<path class="st1" d="M726,321.3c-137.8-57.7-87.3-186.9-87.3-186.9S773.5,181.8,726,321.3L726,321.3L726,321.3z"/>
		<path class="st2" d="M723.3,315.8C595,260.3,640.7,139,640.7,139S766.2,184.8,723.3,315.8L723.3,315.8L723.3,315.8z"/>
		<g>
			<g>
				<path class="st3" d="M709.8,287c-9.2,3.5-22.9-2.7-22.9-2.7l-17.1-7c0,0,10.2,0.4,15.5,1.1C701.9,280.4,712.1,288,709.8,287z"/>
				<path class="st3" d="M710.9,286.5c8.6-4.8,12.6-19.3,12.6-19.3l5.6-17.6c0,0-6.2,8.1-9.1,12.6
					C710.9,276.2,710.2,288.9,710.9,286.5z"/>
			</g>
			<g>
				<path class="st3" d="M698,260.7c-9.2,3.5-22.8-2.5-22.8-2.5l-17.1-7c0,0,10.1,0.8,15.5,1.1C687.1,252.9,698,260.7,698,260.7z"/>
				<path class="st3" d="M698.3,260.5c8.6-4.8,12.7-19.1,12.7-19.1l5.6-17.6c0,0-5.9,8.3-9.1,12.6
					C699.4,247.2,698.3,260.5,698.3,260.5z"/>
			</g>
			<g>
				<path class="st3" d="M683.8,232.7c-7.8,3.9-18.6-1.3-18.6-1.3l-13.7-6.1c0,0,8.3,0.3,12.7,0.3
					C675.2,225.6,683.8,232.7,683.8,232.7z"/>
				<path class="st3" d="M685.9,231.7c8-3.5,11-15.1,11-15.1l4.1-14.4c0,0-5.1,6.6-7.9,9.9C686,220.6,685.9,231.7,685.9,231.7z"/>
			</g>
			<g>
				<path class="st3" d="M670.7,204.9c-6.7,4.2-15.6-0.4-15.6-0.4l-11.2-5.4c0,0,6.9-0.1,10.6-0.3
					C663.9,198.3,670.7,204.9,670.7,204.9z"/>
				<path class="st3" d="M673,203.8c7.5-2.4,9.7-12.2,9.7-12.2l3.1-12c0,0-4.5,5.3-7.1,8C672.3,194.3,673,203.8,673,203.8z"/>
			</g>
			<g>
				<path class="st3" d="M658.8,178.7c-5.5,3.6-13.4-1.4-13.4-1.4l-10-5.9c0,0,6,0.4,9.1,0.4C652.5,171.8,658.8,178.7,658.8,178.7z"
					/>
				<path class="st3" d="M660.7,177.8c6.3-1.9,7.5-11.2,7.5-11.2l1.9-11.5c0,0-3.5,4.8-5.5,7.3C659.5,168.5,660.7,177.8,660.7,177.8
					z"/>
			</g>
		</g>
		<path class="st4" d="M641,138.9c132.7,284.1,62.8,134.3,62.8,134.3L641,138.9z"/>
	</g>
</g>
<g id="LEAF2" class="hej">
	<g>
		<path class="st1" d="M693.7,431c33.7-165,184.1-136.6,184.1-136.6S858.2,454.7,693.7,431L693.7,431L693.7,431z"/>
		<path class="st5" d="M698.1,428.8c31.5-153.5,175.1-131.1,175.1-131.1S851.7,445.9,698.1,428.8L698.1,428.8L698.1,428.8z"/>
		<g>
			<g>
				<path class="st6" d="M726.7,407.4c-5.9-9.3-2.3-25.7-2.3-25.7l3.8-20.3c0,0,1.9,11.2,2.4,17.2
					C732.1,397.2,726.1,410.2,726.7,407.4z"/>
				<path class="st6" d="M727.5,408.5c7.3,8.3,24,9.4,24,9.4l20.6,2.1c0,0-10.3-4.9-15.9-7.1C738.8,406.1,724.7,408.3,727.5,408.5z"
					/>
			</g>
			<g>
				<path class="st6" d="M752.8,388.4c-5.9-9.3-2.5-25.6-2.5-25.6l3.8-20.3c0,0,1.4,11.3,2.4,17.2
					C758.8,374.7,752.8,388.4,752.8,388.4z"/>
				<path class="st6" d="M753.1,388.8c7.3,8.3,23.9,9.6,23.9,9.6l20.6,2.1c0,0-10.4-4.5-15.9-7.1C768,386.8,753.1,388.8,753.1,388.8
					z"/>
			</g>
			<g>
				<path class="st6" d="M780.3,366.5c-6.1-7.6-2.8-20.8-2.8-20.8l3.5-16.4c0,0,1.6,9.2,2.6,14C786.1,355.4,780.3,366.5,780.3,366.5
					z"/>
				<path class="st6" d="M781.8,368.5c5.6,8,19.1,8.6,19.1,8.6l16.7,1.2c0,0-8.4-4.1-12.7-6.4C794.1,366.1,781.8,368.5,781.8,368.5z
					"/>
			</g>
			<g>
				<path class="st6" d="M807.8,345.8c-6.1-6.4-3.1-17.2-3.1-17.2l3.3-13.5c0,0,1.7,7.6,2.8,11.6
					C813.5,336.7,807.8,345.8,807.8,345.8z"/>
				<path class="st6" d="M809.5,348c4.4,7.7,15.6,7.8,15.6,7.8l13.9,0.6c0,0-6.8-3.8-10.4-5.9C819.8,345.1,809.5,348,809.5,348z"/>
			</g>
			<g>
				<path class="st6" d="M833.9,326.7c-5.2-5.2-1.5-15.1-1.5-15.1l4.2-12.3c0,0,1,6.6,1.6,10.1C839.9,318.1,833.9,326.7,833.9,326.7
					z"/>
				<path class="st6" d="M835.2,328.5c3.5,6.5,14,5.7,14,5.7l13-0.6c0,0-6.1-2.8-9.2-4.4C845.1,325.1,835.2,328.5,835.2,328.5z"/>
			</g>
		</g>
		<path class="st5" d="M873.4,298c-281.3,210.6-133,99.6-133,99.6L873.4,298z"/>
	</g>
</g>
<g id="FULL_x5F_IMAGE">
	<g>
		<polygon class="st6" points="166.6,531.9 130,531.9 148.2,504.4 		"/>
		<polygon class="st6" points="203.1,531.9 166.5,531.9 184.7,504.4 		"/>
		<polygon class="st6" points="239.6,531.9 203,531.9 221.2,504.4 		"/>
		<polygon class="st6" points="276.1,531.9 239.5,531.9 257.7,504.4 		"/>
		<polygon class="st6" points="312.7,531.9 276.1,531.9 294.3,504.4 		"/>
		<polygon class="st6" points="349.2,531.9 312.6,531.9 330.8,504.4 		"/>
		<polygon class="st6" points="385.7,531.9 349.1,531.9 367.3,504.4 		"/>
		<polygon class="st6" points="422.7,531.9 386.1,531.9 404.3,504.4 		"/>
		<polygon class="st6" points="459.2,531.9 422.6,531.9 440.8,504.4 		"/>
		<polygon class="st6" points="495.7,531.9 459.1,531.9 477.3,504.4 		"/>
		<polygon class="st6" points="532.2,531.9 495.6,531.9 513.8,504.4 		"/>
		<polygon class="st7" points="148.2,574.9 130,547.4 166.6,547.4 		"/>
		<polygon class="st7" points="184.7,574.9 166.5,547.4 203.1,547.4 		"/>
		<polygon class="st7" points="221.2,574.9 203,547.4 239.6,547.4 		"/>
		<polygon class="st7" points="257.7,574.9 239.5,547.4 276.1,547.4 		"/>
		<polygon class="st7" points="294.3,574.9 276.1,547.4 312.7,547.4 		"/>
		<polygon class="st7" points="330.8,574.9 312.6,547.4 349.2,547.4 		"/>
		<polygon class="st7" points="367.3,574.9 349.1,547.4 385.7,547.4 		"/>
		<polygon class="st7" points="404.3,574.9 386.1,547.4 422.7,547.4 		"/>
		<polygon class="st7" points="440.8,574.9 422.6,547.4 459.2,547.4 		"/>
		<polygon class="st7" points="477.3,574.9 459.1,547.4 495.7,547.4 		"/>
		<polygon class="st7" points="513.8,574.9 495.6,547.4 532.2,547.4 		"/>
		<rect x="130.1" y="537.1" width="658.7" height="4"/>
		<polygon class="st6" points="568.6,531.9 532,531.9 550.2,504.4 		"/>
		<polygon class="st6" points="605.1,531.9 568.5,531.9 586.7,504.4 		"/>
		<polygon class="st6" points="641.6,531.9 605,531.9 623.2,504.4 		"/>
		<polygon class="st6" points="678.1,531.9 641.5,531.9 659.7,504.4 		"/>
		<polygon class="st6" points="714.7,531.9 678.1,531.9 696.3,504.4 		"/>
		<polygon class="st6" points="751.2,531.9 714.6,531.9 732.8,504.4 		"/>
		<polygon class="st7" points="550.2,574.9 532,547.4 568.6,547.4 		"/>
		<polygon class="st7" points="586.7,574.9 568.5,547.4 605.1,547.4 		"/>
		<polygon class="st7" points="623.2,574.9 605,547.4 641.6,547.4 		"/>
		<polygon class="st7" points="659.7,574.9 641.5,547.4 678.1,547.4 		"/>
		<polygon class="st7" points="696.3,574.9 678.1,547.4 714.7,547.4 		"/>
		<polygon class="st7" points="732.8,574.9 714.6,547.4 751.2,547.4 		"/>
		<polygon class="st6" points="787.2,531.9 750.6,531.9 768.8,504.4 		"/>
		<polygon class="st7" points="768.8,574.9 750.6,547.4 787.2,547.4 		"/>
	</g>
	<g>
		<polygon class="st6" points="166.6,77.9 130,77.9 148.2,50.4 		"/>
		<polygon class="st6" points="203.1,77.9 166.5,77.9 184.7,50.4 		"/>
		<polygon class="st6" points="239.6,77.9 203,77.9 221.2,50.4 		"/>
		<polygon class="st6" points="276.1,77.9 239.5,77.9 257.7,50.4 		"/>
		<polygon class="st6" points="312.7,77.9 276.1,77.9 294.3,50.4 		"/>
		<polygon class="st6" points="349.2,77.9 312.6,77.9 330.8,50.4 		"/>
		<polygon class="st6" points="385.7,77.9 349.1,77.9 367.3,50.4 		"/>
		<polygon class="st6" points="422.7,77.9 386.1,77.9 404.3,50.4 		"/>
		<polygon class="st6" points="459.2,77.9 422.6,77.9 440.8,50.4 		"/>
		<polygon class="st6" points="495.7,77.9 459.1,77.9 477.3,50.4 		"/>
		<polygon class="st6" points="532.2,77.9 495.6,77.9 513.8,50.4 		"/>
		<polygon class="st7" points="148.2,120.9 130,93.4 166.6,93.4 		"/>
		<polygon class="st7" points="184.7,120.9 166.5,93.4 203.1,93.4 		"/>
		<polygon class="st7" points="221.2,120.9 203,93.4 239.6,93.4 		"/>
		<polygon class="st7" points="257.7,120.9 239.5,93.4 276.1,93.4 		"/>
		<polygon class="st7" points="294.3,120.9 276.1,93.4 312.7,93.4 		"/>
		<polygon class="st7" points="330.8,120.9 312.6,93.4 349.2,93.4 		"/>
		<polygon class="st7" points="367.3,120.9 349.1,93.4 385.7,93.4 		"/>
		<polygon class="st7" points="404.3,120.9 386.1,93.4 422.7,93.4 		"/>
		<polygon class="st7" points="440.8,120.9 422.6,93.4 459.2,93.4 		"/>
		<polygon class="st7" points="477.3,120.9 459.1,93.4 495.7,93.4 		"/>
		<polygon class="st7" points="513.8,120.9 495.6,93.4 532.2,93.4 		"/>
		<rect x="130.1" y="83.1" width="658.7" height="4"/>
		<polygon class="st6" points="568.6,77.9 532,77.9 550.2,50.4 		"/>
		<polygon class="st6" points="605.1,77.9 568.5,77.9 586.7,50.4 		"/>
		<polygon class="st6" points="641.6,77.9 605,77.9 623.2,50.4 		"/>
		<polygon class="st6" points="678.1,77.9 641.5,77.9 659.7,50.4 		"/>
		<polygon class="st6" points="714.7,77.9 678.1,77.9 696.3,50.4 		"/>
		<polygon class="st6" points="751.2,77.9 714.6,77.9 732.8,50.4 		"/>
		<polygon class="st7" points="550.2,120.9 532,93.4 568.6,93.4 		"/>
		<polygon class="st7" points="586.7,120.9 568.5,93.4 605.1,93.4 		"/>
		<polygon class="st7" points="623.2,120.9 605,93.4 641.6,93.4 		"/>
		<polygon class="st7" points="659.7,120.9 641.5,93.4 678.1,93.4 		"/>
		<polygon class="st7" points="696.3,120.9 678.1,93.4 714.7,93.4 		"/>
		<polygon class="st7" points="732.8,120.9 714.6,93.4 751.2,93.4 		"/>
		<polygon class="st6" points="787.2,77.9 750.6,77.9 768.8,50.4 		"/>
		<polygon class="st7" points="768.8,120.9 750.6,93.4 787.2,93.4 		"/>
	</g>
	<g>
		<g>
			<path class="st8" d="M231,372.3v-64.9l-17,64.9h-18.8l-16.8-64.6v64.6h-17.7v-94.7h27.9L205,347l16.4-69.4h27.4v94.7L231,372.3
				L231,372.3z"/>
			<path class="st8" d="M268.8,372.3v-94.7h19v94.7H268.8z"/>
			<path class="st8" d="M364.2,372.3l-38.9-63.6v63.6h-17.7v-94.7h20.2l36.1,60.9v-60.9h17.9v94.7L364.2,372.3L364.2,372.3z"/>
			<path class="st8" d="M464.7,372.3l-5.7-19.5h-33.5l-6.4,19.5H399l32.4-94.7h22l32,94.7H464.7z M442.1,298.8H442l-11.6,37.6h23.1
				L442.1,298.8z"/>
			<path class="st8" d="M573,372.3v-64.9l-17,64.9h-18.9l-16.8-64.6v64.6h-17.7v-94.7h27.9l16.4,69.4l16.4-69.4h27.5v94.7L573,372.3
				L573,372.3z"/>
			<path class="st8" d="M610.8,372.3v-94.7h19v94.7H610.8z"/>
		</g>
		<g>
			<path class="st9" d="M231,372.3v-64.9l-17,64.9h-18.8l-16.8-64.6v64.6h-17.7v-94.7h27.9L205,347l16.4-69.4h27.4v94.7L231,372.3
				L231,372.3z"/>
			<path class="st9" d="M268.8,372.3v-94.7h19v94.7H268.8z"/>
			<path class="st9" d="M364.2,372.3l-38.9-63.6v63.6h-17.7v-94.7h20.2l36.1,60.9v-60.9h17.9v94.7L364.2,372.3L364.2,372.3z"/>
			<path class="st9" d="M464.7,372.3l-5.7-19.5h-33.5l-6.4,19.5H399l32.4-94.7h22l32,94.7H464.7z M442.1,298.8H442l-11.6,37.6h23.1
				L442.1,298.8z"/>
			<path class="st9" d="M573,372.3v-64.9l-17,64.9h-18.9l-16.8-64.6v64.6h-17.7v-94.7h27.9l16.4,69.4l16.4-69.4h27.5v94.7L573,372.3
				L573,372.3z"/>
			<path class="st9" d="M610.8,372.3v-94.7h19v94.7H610.8z"/>
		</g>
		<g>
			<path d="M231,372.3v-64.9l-17,64.9h-18.8l-16.8-64.6v64.6h-17.7v-94.7h27.9L205,347l16.4-69.4h27.4v94.7L231,372.3L231,372.3z"/>
			<path d="M268.8,372.3v-94.7h19v94.7H268.8z"/>
			<path d="M364.2,372.3l-38.9-63.6v63.6h-17.7v-94.7h20.2l36.1,60.9v-60.9h17.9v94.7L364.2,372.3L364.2,372.3z"/>
			<path d="M464.7,372.3l-5.7-19.5h-33.5l-6.4,19.5H399l32.4-94.7h22l32,94.7H464.7z M442.1,298.8H442l-11.6,37.6h23.1L442.1,298.8z
				"/>
			<path d="M573,372.3v-64.9l-17,64.9h-18.9l-16.8-64.6v64.6h-17.7v-94.7h27.9l16.4,69.4l16.4-69.4h27.5v94.7L573,372.3L573,372.3z"
				/>
			<path d="M610.8,372.3v-94.7h19v94.7H610.8z"/>
		</g>
	</g>
	<g>
		<g>
			<path class="st10" d="M244.9,209.8c-1.1,5.8-2.9,11-5.3,15.6c-2.4,4.6-5.5,8.6-9.2,12c-3.7,3.3-8,5.9-12.8,7.7
				s-10.2,2.7-16.1,2.7c-6.6,0-12.7-1.1-18.4-3.3s-10.6-5.6-14.8-10c-4.1-4.4-7.4-9.9-9.8-16.4c-2.4-6.5-3.6-14.1-3.6-22.8
				c0-8.5,1.1-16.1,3.3-23c2.2-6.8,5.3-12.6,9.3-17.3c4-4.7,9-8.3,14.8-10.8s12.3-3.8,19.5-3.8c6.3,0,11.9,0.9,17,2.8
				c5.1,1.9,9.5,4.4,13.2,7.7c3.7,3.3,6.6,7.1,8.8,11.6c2.2,4.4,3.5,9.2,4,14.2h-21c-1.4-5.8-4.1-10.2-8.2-13.4
				c-4-3.2-8.6-4.8-13.6-4.8c-8.8,0-15.3,3.2-19.4,9.5c-4.1,6.3-6.2,15-6.2,26c0,11.2,2,19.9,6.1,26.1c4.1,6.2,10.2,9.3,18.4,9.3
				c6.3,0,11.3-1.7,15.1-5.1c3.8-3.4,6.4-8.3,7.8-14.6h21.1V209.8z"/>
			<path class="st10" d="M263.5,244.3V143.7h21.1v100.6H263.5z"/>
			<path class="st10" d="M306.5,244.3V143.7h21.1V226h49.8v18.3L306.5,244.3L306.5,244.3z"/>
			<path class="st10" d="M396.8,244.3V143.7h21.1V226h49.8v18.3L396.8,244.3L396.8,244.3z"/>
			<path class="st10" d="M556.9,244.3l-6.4-20.8h-37.1l-7.1,20.8H484l35.9-100.6h24.4l35.5,100.6H556.9z M531.9,166.3h-0.1l-12.9,40
				h25.6L531.9,166.3z"/>
		</g>
		<g>
			<path class="st11" d="M244.9,209.8c-1.1,5.8-2.9,11-5.3,15.6c-2.4,4.6-5.5,8.6-9.2,12c-3.7,3.3-8,5.9-12.8,7.7
				s-10.2,2.7-16.1,2.7c-6.6,0-12.7-1.1-18.4-3.3s-10.6-5.6-14.8-10c-4.1-4.4-7.4-9.9-9.8-16.4c-2.4-6.5-3.6-14.1-3.6-22.8
				c0-8.5,1.1-16.1,3.3-23c2.2-6.8,5.3-12.6,9.3-17.3c4-4.7,9-8.3,14.8-10.8s12.3-3.8,19.5-3.8c6.3,0,11.9,0.9,17,2.8
				c5.1,1.9,9.5,4.4,13.2,7.7c3.7,3.3,6.6,7.1,8.8,11.6c2.2,4.4,3.5,9.2,4,14.2h-21c-1.4-5.8-4.1-10.2-8.2-13.4
				c-4-3.2-8.6-4.8-13.6-4.8c-8.8,0-15.3,3.2-19.4,9.5c-4.1,6.3-6.2,15-6.2,26c0,11.2,2,19.9,6.1,26.1c4.1,6.2,10.2,9.3,18.4,9.3
				c6.3,0,11.3-1.7,15.1-5.1c3.8-3.4,6.4-8.3,7.8-14.6h21.1V209.8z"/>
			<path class="st11" d="M263.5,244.3V143.7h21.1v100.6H263.5z"/>
			<path class="st11" d="M306.5,244.3V143.7h21.1V226h49.8v18.3L306.5,244.3L306.5,244.3z"/>
			<path class="st11" d="M396.8,244.3V143.7h21.1V226h49.8v18.3L396.8,244.3L396.8,244.3z"/>
			<path class="st11" d="M556.9,244.3l-6.4-20.8h-37.1l-7.1,20.8H484l35.9-100.6h24.4l35.5,100.6H556.9z M531.9,166.3h-0.1l-12.9,40
				h25.6L531.9,166.3z"/>
		</g>
		<g>
			<path d="M244.9,209.8c-1.1,5.8-2.9,11-5.3,15.6c-2.4,4.6-5.5,8.6-9.2,12c-3.7,3.3-8,5.9-12.8,7.7s-10.2,2.7-16.1,2.7
				c-6.6,0-12.7-1.1-18.4-3.3s-10.6-5.6-14.8-10c-4.1-4.4-7.4-9.9-9.8-16.4c-2.4-6.5-3.6-14.1-3.6-22.8c0-8.5,1.1-16.1,3.3-23
				c2.2-6.8,5.3-12.6,9.3-17.3c4-4.7,9-8.3,14.8-10.8s12.3-3.8,19.5-3.8c6.3,0,11.9,0.9,17,2.8c5.1,1.9,9.5,4.4,13.2,7.7
				c3.7,3.3,6.6,7.1,8.8,11.6c2.2,4.4,3.5,9.2,4,14.2h-21c-1.4-5.8-4.1-10.2-8.2-13.4c-4-3.2-8.6-4.8-13.6-4.8
				c-8.8,0-15.3,3.2-19.4,9.5c-4.1,6.3-6.2,15-6.2,26c0,11.2,2,19.9,6.1,26.1c4.1,6.2,10.2,9.3,18.4,9.3c6.3,0,11.3-1.7,15.1-5.1
				c3.8-3.4,6.4-8.3,7.8-14.6h21.1V209.8z"/>
			<path d="M263.5,244.3V143.7h21.1v100.6H263.5z"/>
			<path d="M306.5,244.3V143.7h21.1V226h49.8v18.3L306.5,244.3L306.5,244.3z"/>
			<path d="M396.8,244.3V143.7h21.1V226h49.8v18.3L396.8,244.3L396.8,244.3z"/>
			<path d="M556.9,244.3l-6.4-20.8h-37.1l-7.1,20.8H484l35.9-100.6h24.4l35.5,100.6H556.9z M531.9,166.3h-0.1l-12.9,40h25.6
				L531.9,166.3z"/>
		</g>
	</g>
</g>
</svg>
