<?xml version="1.0" encoding="utf-8"?>
<!-- Generator: Adobe Illustrator 21.0.2, SVG Export Plug-In . SVG Version: 6.00 Build 0)  -->
<svg version="1.1" id="Lager_1" xmlns="http://www.w3.org/2000/svg" xmlns:xlink="http://www.w3.org/1999/xlink" x="0px" y="0px"
	 viewBox="0 0 658.8 341.7" style="enable-background:new 0 0 658.8 341.7;" xml:space="preserve">
<style type="text/css">
	.st0{stroke:#000000;stroke-width:4;stroke-miterlimit:10;}
	.st1{stroke:#00FFFF;stroke-width:4;stroke-miterlimit:10;}
	.st2{fill:#00F3F7;}
	.st3{stroke:#2EF6FF;stroke-width:4;stroke-miterlimit:10;}
	.st4{stroke:#FF00FF;stroke-width:4;stroke-miterlimit:10;}
	.st5{fill:#FF00FF;}
	.st6{fill:#00FFFF;}
	.st7{fill:#00FFFF;stroke:#00FFFF;stroke-width:18;stroke-linecap:square;stroke-miterlimit:2;}
	.st8{fill:#FF00FF;stroke:#FF00FF;stroke-width:9;stroke-miterlimit:2;}
	.st9{fill:#00FFFF;stroke:#00FFFF;stroke-width:18;stroke-miterlimit:10;}
	.st10{fill:#FF00FF;stroke:#FF00FF;stroke-width:9;stroke-miterlimit:10;}
</style>
<g id="LEAF1">
	<g>
		<path class="st0" d="M612.8,202.9C508.8,195,497.5,82.4,497.5,82.4S596.3,83.2,612.8,202.9L612.8,202.9L612.8,202.9z"/>
		<path class="st1" d="M609.4,199.4c-97.4-8.7-109.1-114-109.1-114S592.8,87.4,609.4,199.4L609.4,199.4L609.4,199.4z"/>
		<g>
			<g>
				<path class="st2" d="M591.6,180.9c-4.5,5.1-15,4-15,4l-12.9-0.9c0,0,6.4-2.4,9.9-3.2C584.5,177.9,593.3,181,591.6,180.9z"/>
				<path class="st2" d="M592.1,180.2c3.7-6,1.4-18.2,1.4-18.2l-2.3-15c0,0-1.2,7.9-1.5,12.1C588.7,172.3,592.4,182.2,592.1,180.2z"
					/>
			</g>
			<g>
				<path class="st2" d="M575.6,163.8c-4.5,5.1-14.9,4.1-14.9,4.1l-12.9-0.9c0,0,6.5-2.1,9.9-3.2
					C566.3,160.7,575.6,163.8,575.6,163.8z"/>
				<path class="st2" d="M575.8,163.5c3.7-6,1.6-18,1.6-18l-2.3-15c0,0-0.9,7.9-1.5,12.1C572.1,153,575.8,163.5,575.8,163.5z"/>
			</g>
			<g>
				<path class="st2" d="M557.7,146c-3.5,5.1-11.9,3.9-11.9,3.9l-10.5-1.1c0,0,5.2-2,7.9-3.1C550,142.8,557.7,146,557.7,146z"/>
				<path class="st2" d="M558.6,144.7c3.8-4.8,1.8-14.5,1.8-14.5l-2.2-12.1c0,0-1,6.4-1.6,9.7C555,136.1,558.6,144.7,558.6,144.7z"
					/>
			</g>
			<g>
				<path class="st2" d="M540.4,128.1c-2.8,5-9.8,3.8-9.8,3.8l-8.7-1.2c0,0,4.2-1.9,6.4-3C534.1,124.8,540.4,128.1,540.4,128.1z"/>
				<path class="st2" d="M541.5,126.7c3.8-3.8,2-11.9,2-11.9l-2-10c0,0-1,5.3-1.8,8C537.9,119.5,541.5,126.7,541.5,126.7z"/>
			</g>
			<g>
				<path class="st2" d="M524.5,111.1c-2.2,4.2-8.7,2.5-8.7,2.5l-8.1-1.9c0,0,3.8-1.3,5.7-2.1C518.3,107.5,524.5,111.1,524.5,111.1z
					"/>
				<path class="st2" d="M525.4,109.9c3.3-3.1,0.9-10.6,0.9-10.6l-2.6-9.3c0,0-0.6,4.6-1,7.1C521.6,103.1,525.4,109.9,525.4,109.9z"
					/>
			</g>
		</g>
		<path class="st3" d="M500.4,85.3c175.3,183.2,82.9,86.6,82.9,86.6L500.4,85.3z"/>
	</g>
</g>
<g id="LEAF2">
	<g>
		<path class="st0" d="M533.9,333.1c20.8-126.5,113.4-104.8,113.4-104.8S635.2,351.2,533.9,333.1L533.9,333.1L533.9,333.1z"/>
		<path class="st4" d="M536.6,331.4C556,213.7,644.4,230.9,644.4,230.9S631.2,344.5,536.6,331.4L536.6,331.4L536.6,331.4z"/>
		<g>
			<g>
				<path class="st5" d="M554.2,315c-3.6-7.1-1.4-19.7-1.4-19.7l2.3-15.6c0,0,1.2,8.6,1.5,13.2C557.6,307.2,553.9,317.1,554.2,315z"
					/>
				<path class="st5" d="M554.7,315.8c4.5,6.4,14.8,7.2,14.8,7.2l12.7,1.6c0,0-6.3-3.8-9.8-5.4C561.7,314,553,315.7,554.7,315.8z"/>
			</g>
			<g>
				<path class="st5" d="M570.3,300.4c-3.6-7.1-1.5-19.6-1.5-19.6l2.3-15.6c0,0,0.9,8.7,1.5,13.2C574,289.9,570.3,300.4,570.3,300.4
					z"/>
				<path class="st5" d="M570.5,300.7c4.5,6.4,14.7,7.4,14.7,7.4l12.7,1.6c0,0-6.4-3.4-9.8-5.4C579.7,299.2,570.5,300.7,570.5,300.7
					z"/>
			</g>
			<g>
				<path class="st5" d="M587.2,283.6c-3.8-5.8-1.7-15.9-1.7-15.9l2.2-12.6c0,0,1,7.1,1.6,10.7C590.8,275.1,587.2,283.6,587.2,283.6
					z"/>
				<path class="st5" d="M588.2,285.2c3.4,6.1,11.8,6.6,11.8,6.6l10.3,0.9c0,0-5.2-3.1-7.8-4.9C595.7,283.3,588.2,285.2,588.2,285.2
					z"/>
			</g>
			<g>
				<path class="st5" d="M604.2,267.7c-3.8-4.9-1.9-13.2-1.9-13.2l2-10.3c0,0,1,5.8,1.7,8.9C607.7,260.8,604.2,267.7,604.2,267.7z"
					/>
				<path class="st5" d="M605.2,269.4c2.7,5.9,9.6,6,9.6,6l8.6,0.5c0,0-4.2-2.9-6.4-4.5C611.6,267.2,605.2,269.4,605.2,269.4z"/>
			</g>
			<g>
				<path class="st5" d="M620.2,253.1c-3.2-4-0.9-11.6-0.9-11.6l2.6-9.4c0,0,0.6,5.1,1,7.7C623.9,246.5,620.2,253.1,620.2,253.1z"/>
				<path class="st5" d="M621,254.5c2.2,5,8.6,4.4,8.6,4.4l8-0.5c0,0-3.8-2.1-5.7-3.4C627.1,251.9,621,254.5,621,254.5z"/>
			</g>
		</g>
		<path class="st4" d="M644.6,231.1c-173.2,161.4-81.9,76.4-81.9,76.4L644.6,231.1z"/>
	</g>
</g>
<g id="FULL_x5F_IMAGE">
	<g>
		<polygon class="st5" points="36.6,27.5 0,27.5 18.2,0 		"/>
		<polygon class="st5" points="73.1,27.5 36.5,27.5 54.7,0 		"/>
		<polygon class="st5" points="109.6,27.5 73,27.5 91.2,0 		"/>
		<polygon class="st5" points="146.1,27.5 109.5,27.5 127.7,0 		"/>
		<polygon class="st5" points="182.7,27.5 146.1,27.5 164.3,0 		"/>
		<polygon class="st5" points="219.2,27.5 182.6,27.5 200.8,0 		"/>
		<polygon class="st5" points="255.7,27.5 219.1,27.5 237.3,0 		"/>
		<polygon class="st5" points="292.7,27.5 256.1,27.5 274.3,0 		"/>
		<polygon class="st5" points="329.2,27.5 292.6,27.5 310.8,0 		"/>
		<polygon class="st5" points="365.7,27.5 329.1,27.5 347.3,0 		"/>
		<polygon class="st5" points="402.2,27.5 365.6,27.5 383.8,0 		"/>
		<polygon class="st6" points="18.2,70.5 0,43 36.6,43 		"/>
		<polygon class="st6" points="54.7,70.5 36.5,43 73.1,43 		"/>
		<polygon class="st6" points="91.2,70.5 73,43 109.6,43 		"/>
		<polygon class="st6" points="127.7,70.5 109.5,43 146.1,43 		"/>
		<polygon class="st6" points="164.3,70.5 146.1,43 182.7,43 		"/>
		<polygon class="st6" points="200.8,70.5 182.6,43 219.2,43 		"/>
		<polygon class="st6" points="237.3,70.5 219.1,43 255.7,43 		"/>
		<polygon class="st6" points="274.3,70.5 256.1,43 292.7,43 		"/>
		<polygon class="st6" points="310.8,70.5 292.6,43 329.2,43 		"/>
		<polygon class="st6" points="347.3,70.5 329.1,43 365.7,43 		"/>
		<polygon class="st6" points="383.8,70.5 365.6,43 402.2,43 		"/>
		<rect x="0.1" y="32.7" width="658.7" height="4"/>
		<polygon class="st5" points="438.6,27.5 402,27.5 420.2,0 		"/>
		<polygon class="st5" points="475.1,27.5 438.5,27.5 456.7,0 		"/>
		<polygon class="st5" points="511.6,27.5 475,27.5 493.2,0 		"/>
		<polygon class="st5" points="548.1,27.5 511.5,27.5 529.7,0 		"/>
		<polygon class="st5" points="584.7,27.5 548.1,27.5 566.3,0 		"/>
		<polygon class="st5" points="621.2,27.5 584.6,27.5 602.8,0 		"/>
		<polygon class="st6" points="420.2,70.5 402,43 438.6,43 		"/>
		<polygon class="st6" points="456.7,70.5 438.5,43 475.1,43 		"/>
		<polygon class="st6" points="493.2,70.5 475,43 511.6,43 		"/>
		<polygon class="st6" points="529.7,70.5 511.5,43 548.1,43 		"/>
		<polygon class="st6" points="566.3,70.5 548.1,43 584.7,43 		"/>
		<polygon class="st6" points="602.8,70.5 584.6,43 621.2,43 		"/>
		<polygon class="st5" points="657.2,27.5 620.6,27.5 638.8,0 		"/>
		<polygon class="st6" points="638.8,70.5 620.6,43 657.2,43 		"/>
	</g>
	<g>
		<g>
			<path class="st7" d="M101,321.9V257l-17,64.9H65.2l-16.8-64.6v64.6H30.7v-94.7h27.9L75,296.6l16.4-69.4h27.4v94.7H101L101,321.9z
				"/>
			<path class="st7" d="M138.8,321.9v-94.7h19v94.7H138.8z"/>
			<path class="st7" d="M234.2,321.9l-38.9-63.6v63.6h-17.7v-94.7h20.2l36.1,60.9v-60.9h17.9v94.7H234.2L234.2,321.9z"/>
			<path class="st7" d="M334.7,321.9l-5.7-19.5h-33.5l-6.4,19.5H269l32.4-94.7h22l32,94.7H334.7z M312.1,248.4H312L300.4,286h23.1
				L312.1,248.4z"/>
			<path class="st7" d="M443,321.9V257l-17,64.9h-18.9l-16.8-64.6v64.6h-17.7v-94.7h27.9l16.4,69.4l16.4-69.4h27.5v94.7H443
				L443,321.9z"/>
			<path class="st7" d="M480.8,321.9v-94.7h19v94.7H480.8z"/>
		</g>
		<g>
			<path class="st8" d="M101,321.9V257l-17,64.9H65.2l-16.8-64.6v64.6H30.7v-94.7h27.9L75,296.6l16.4-69.4h27.4v94.7H101L101,321.9z
				"/>
			<path class="st8" d="M138.8,321.9v-94.7h19v94.7H138.8z"/>
			<path class="st8" d="M234.2,321.9l-38.9-63.6v63.6h-17.7v-94.7h20.2l36.1,60.9v-60.9h17.9v94.7H234.2L234.2,321.9z"/>
			<path class="st8" d="M334.7,321.9l-5.7-19.5h-33.5l-6.4,19.5H269l32.4-94.7h22l32,94.7H334.7z M312.1,248.4H312L300.4,286h23.1
				L312.1,248.4z"/>
			<path class="st8" d="M443,321.9V257l-17,64.9h-18.9l-16.8-64.6v64.6h-17.7v-94.7h27.9l16.4,69.4l16.4-69.4h27.5v94.7H443
				L443,321.9z"/>
			<path class="st8" d="M480.8,321.9v-94.7h19v94.7H480.8z"/>
		</g>
		<g>
			<path d="M101,321.9V257l-17,64.9H65.2l-16.8-64.6v64.6H30.7v-94.7h27.9L75,296.6l16.4-69.4h27.4v94.7H101L101,321.9z"/>
			<path d="M138.8,321.9v-94.7h19v94.7H138.8z"/>
			<path d="M234.2,321.9l-38.9-63.6v63.6h-17.7v-94.7h20.2l36.1,60.9v-60.9h17.9v94.7H234.2L234.2,321.9z"/>
			<path d="M334.7,321.9l-5.7-19.5h-33.5l-6.4,19.5H269l32.4-94.7h22l32,94.7H334.7z M312.1,248.4H312L300.4,286h23.1L312.1,248.4z"
				/>
			<path d="M443,321.9V257l-17,64.9h-18.9l-16.8-64.6v64.6h-17.7v-94.7h27.9l16.4,69.4l16.4-69.4h27.5v94.7H443L443,321.9z"/>
			<path d="M480.8,321.9v-94.7h19v94.7H480.8z"/>
		</g>
	</g>
	<g>
		<g>
			<path class="st9" d="M114.9,159.4c-1.1,5.8-2.9,11-5.3,15.6s-5.5,8.6-9.2,12c-3.7,3.3-8,5.9-12.8,7.7s-10.2,2.7-16.1,2.7
				c-6.6,0-12.7-1.1-18.4-3.3s-10.6-5.6-14.8-10c-4.1-4.4-7.4-9.9-9.8-16.4s-3.6-14.1-3.6-22.8c0-8.5,1.1-16.1,3.3-23
				c2.2-6.8,5.3-12.6,9.3-17.3c4-4.7,9-8.3,14.8-10.8S64.6,90,71.8,90c6.3,0,11.9,0.9,17,2.8s9.5,4.4,13.2,7.7
				c3.7,3.3,6.6,7.1,8.8,11.6c2.2,4.4,3.5,9.2,4,14.2h-21c-1.4-5.8-4.1-10.2-8.2-13.4c-4-3.2-8.6-4.8-13.6-4.8
				c-8.8,0-15.3,3.2-19.4,9.5c-4.1,6.3-6.2,15-6.2,26c0,11.2,2,19.9,6.1,26.1c4.1,6.2,10.2,9.3,18.4,9.3c6.3,0,11.3-1.7,15.1-5.1
				c3.8-3.4,6.4-8.3,7.8-14.6h21.1C114.9,159.3,114.9,159.4,114.9,159.4z"/>
			<path class="st9" d="M133.5,193.9V93.3h21.1v100.6H133.5z"/>
			<path class="st9" d="M176.5,193.9V93.3h21.1v82.3h49.8v18.3H176.5L176.5,193.9z"/>
			<path class="st9" d="M266.8,193.9V93.3h21.1v82.3h49.8v18.3H266.8L266.8,193.9z"/>
			<path class="st9" d="M426.9,193.9l-6.4-20.8h-37.1l-7.1,20.8H354l35.9-100.6h24.4l35.5,100.6H426.9z M401.9,115.9h-0.1l-12.9,40
				h25.6L401.9,115.9z"/>
		</g>
		<g>
			<path class="st10" d="M114.9,159.4c-1.1,5.8-2.9,11-5.3,15.6s-5.5,8.6-9.2,12c-3.7,3.3-8,5.9-12.8,7.7s-10.2,2.7-16.1,2.7
				c-6.6,0-12.7-1.1-18.4-3.3s-10.6-5.6-14.8-10c-4.1-4.4-7.4-9.9-9.8-16.4s-3.6-14.1-3.6-22.8c0-8.5,1.1-16.1,3.3-23
				c2.2-6.8,5.3-12.6,9.3-17.3c4-4.7,9-8.3,14.8-10.8S64.6,90,71.8,90c6.3,0,11.9,0.9,17,2.8s9.5,4.4,13.2,7.7
				c3.7,3.3,6.6,7.1,8.8,11.6c2.2,4.4,3.5,9.2,4,14.2h-21c-1.4-5.8-4.1-10.2-8.2-13.4c-4-3.2-8.6-4.8-13.6-4.8
				c-8.8,0-15.3,3.2-19.4,9.5c-4.1,6.3-6.2,15-6.2,26c0,11.2,2,19.9,6.1,26.1c4.1,6.2,10.2,9.3,18.4,9.3c6.3,0,11.3-1.7,15.1-5.1
				c3.8-3.4,6.4-8.3,7.8-14.6h21.1C114.9,159.3,114.9,159.4,114.9,159.4z"/>
			<path class="st10" d="M133.5,193.9V93.3h21.1v100.6H133.5z"/>
			<path class="st10" d="M176.5,193.9V93.3h21.1v82.3h49.8v18.3H176.5L176.5,193.9z"/>
			<path class="st10" d="M266.8,193.9V93.3h21.1v82.3h49.8v18.3H266.8L266.8,193.9z"/>
			<path class="st10" d="M426.9,193.9l-6.4-20.8h-37.1l-7.1,20.8H354l35.9-100.6h24.4l35.5,100.6H426.9z M401.9,115.9h-0.1l-12.9,40
				h25.6L401.9,115.9z"/>
		</g>
		<g>
			<path d="M114.9,159.4c-1.1,5.8-2.9,11-5.3,15.6s-5.5,8.6-9.2,12c-3.7,3.3-8,5.9-12.8,7.7s-10.2,2.7-16.1,2.7
				c-6.6,0-12.7-1.1-18.4-3.3s-10.6-5.6-14.8-10c-4.1-4.4-7.4-9.9-9.8-16.4s-3.6-14.1-3.6-22.8c0-8.5,1.1-16.1,3.3-23
				c2.2-6.8,5.3-12.6,9.3-17.3c4-4.7,9-8.3,14.8-10.8S64.6,90,71.8,90c6.3,0,11.9,0.9,17,2.8s9.5,4.4,13.2,7.7
				c3.7,3.3,6.6,7.1,8.8,11.6c2.2,4.4,3.5,9.2,4,14.2h-21c-1.4-5.8-4.1-10.2-8.2-13.4c-4-3.2-8.6-4.8-13.6-4.8
				c-8.8,0-15.3,3.2-19.4,9.5c-4.1,6.3-6.2,15-6.2,26c0,11.2,2,19.9,6.1,26.1c4.1,6.2,10.2,9.3,18.4,9.3c6.3,0,11.3-1.7,15.1-5.1
				c3.8-3.4,6.4-8.3,7.8-14.6h21.1C114.9,159.3,114.9,159.4,114.9,159.4z"/>
			<path d="M133.5,193.9V93.3h21.1v100.6H133.5z"/>
			<path d="M176.5,193.9V93.3h21.1v82.3h49.8v18.3H176.5L176.5,193.9z"/>
			<path d="M266.8,193.9V93.3h21.1v82.3h49.8v18.3H266.8L266.8,193.9z"/>
			<path d="M426.9,193.9l-6.4-20.8h-37.1l-7.1,20.8H354l35.9-100.6h24.4l35.5,100.6H426.9z M401.9,115.9h-0.1l-12.9,40h25.6
				L401.9,115.9z"/>
		</g>
	</g>
</g>
</svg>
