<?xml version="1.0" encoding="utf-8"?>
<!-- Generator: Adobe Illustrator 21.0.2, SVG Export Plug-In . SVG Version: 6.00 Build 0)  -->
<svg version="1.1" id="Lager_1" xmlns="http://www.w3.org/2000/svg" xmlns:xlink="http://www.w3.org/1999/xlink" x="0px" y="0px"
	 viewBox="0 0 665.7 531.8" style="enable-background:new 0 0 665.7 531.8;" xml:space="preserve">
<style type="text/css">
	.st0{fill:#FFFFFF;}
	.st1{stroke:#000000;stroke-width:4;stroke-miterlimit:10;}
	.st2{stroke:#00FFFF;stroke-width:4;stroke-miterlimit:10;}
	.st3{fill:#00F3F7;}
	.st4{stroke:#2EF6FF;stroke-width:4;stroke-miterlimit:10;}
	.st5{stroke:#FF00FF;stroke-width:4;stroke-miterlimit:10;}
	.st6{fill:#FF00FF;}
	.st7{fill:#00FFFF;}
	.st8{fill:#00FFFF;stroke:#00FFFF;stroke-width:18;stroke-linecap:square;stroke-miterlimit:2;}
	.st9{fill:#FF00FF;stroke:#FF00FF;stroke-width:9;stroke-miterlimit:2;}
	.st10{fill:#00FFFF;stroke:#00FFFF;stroke-width:18;stroke-miterlimit:10;}
	.st11{fill:#FF00FF;stroke:#FF00FF;stroke-width:9;stroke-miterlimit:10;}

	.st0Pointer{
	fill:white;
}
	.st0:hover{
	fill:yellow;
	}

</style>
<g id="UX">
		<a href="../pages/ux.html" target="_parent"> <rect x="22.1" y="410.8" class="st0" width="618" height="36"/>
	<path d="M78.9,441.8v-23.9h4.8v23.9H78.9z"/>
	<path d="M104.7,441.8l-9.8-16.1v16.1h-4.5v-23.9h5.1l9.1,15.4v-15.4h4.5v23.9H104.7z"/>
	<path d="M122.1,441.8v-19.7h-6.9v-4.2h18.7v4.2H127v19.7H122.1z"/>
	<path d="M140,441.8v-23.9h16.9v4.2h-12.2v5.1h11.2v4.2h-11.2v6.2h12.8v4.2L140,441.8L140,441.8z"/>
	<path d="M176.8,441.8v-6.2c0-1.2-0.3-2-0.8-2.5s-1.5-0.7-2.8-0.7h-5.1v9.4h-4.7v-23.9h11.7c1.1,0,2,0.2,2.9,0.5s1.6,0.8,2.2,1.4
		c0.6,0.6,1.1,1.3,1.4,2.2c0.3,0.9,0.5,1.8,0.5,2.8c0,1.3-0.3,2.4-0.9,3.4c-0.6,1-1.4,1.7-2.5,2.1c1,0.3,1.7,0.9,2.2,1.5
		c0.4,0.7,0.6,1.7,0.6,3.1v6.8h-4.7V441.8z M168.1,422v6.4h6c1.3,0,2.2-0.3,2.7-0.9s0.8-1.4,0.8-2.3s-0.3-1.7-0.8-2.3
		c-0.5-0.6-1.4-0.9-2.6-0.9L168.1,422L168.1,422z"/>
	<path d="M204.4,441.8l-1.5-4.9h-8.5l-1.6,4.9h-5.1l8.2-23.9h5.6l8.1,23.9H204.4z M198.6,423.3L198.6,423.3l-3,9.5h5.8L198.6,423.3z
		"/>
	<path d="M229.8,441.8L223,431l-2.6,2.6v8.1h-4.7v-23.9h4.7v9.7l8.8-9.7h6.2l-9.1,9.4l9.3,14.5L229.8,441.8L229.8,441.8z"/>
	<path d="M247.8,441.8v-19.7h-6.9v-4.2h18.7v4.2h-6.9v19.7H247.8z"/>
	<path d="M265.7,441.8v-23.9h4.8v23.9H265.7z"/>
	<path d="M288,441.8c-3.5,0-6.3-1.1-8.2-3.2s-2.9-5.3-2.9-9.3c0-2,0.2-3.8,0.7-5.4s1.2-3,2.1-4.1s2.1-2,3.5-2.6s2.9-0.9,4.7-0.9
		c1.8,0,3.3,0.3,4.7,0.9c1.4,0.6,2.5,1.4,3.4,2.6c0.9,1.1,1.6,2.5,2.1,4.1s0.7,3.5,0.7,5.5c0,4.1-0.9,7.2-2.8,9.3
		C294.3,440.8,291.6,441.8,288,441.8z M288,437.5c0.9,0,1.7-0.2,2.4-0.5c0.8-0.3,1.4-0.8,2-1.5s1-1.5,1.3-2.5s0.5-2.3,0.5-3.7
		c0-2.8-0.5-5-1.6-6.4c-1.1-1.5-2.6-2.2-4.6-2.2s-3.6,0.7-4.7,2.2s-1.6,3.6-1.6,6.4s0.5,4.9,1.6,6.2
		C284.5,436.9,286,437.5,288,437.5z"/>
	<path d="M319.7,441.8l-9.8-16.1v16.1h-4.5v-23.9h5.1l9.1,15.4v-15.4h4.5v23.9H319.7z"/>
	<path d="M343.9,424.1c-0.1-1.2-0.5-2.1-1.3-2.7c-0.7-0.6-1.8-0.9-3.3-0.9c-2.7,0-4.1,1-4.1,2.9c0,0.7,0.3,1.3,0.8,1.7
		c0.6,0.5,1.5,0.9,2.7,1.2c1.5,0.4,2.8,0.7,3.8,1c1.1,0.3,2.1,0.7,3,1.1c0.5,0.2,1,0.5,1.4,0.8s0.8,0.7,1.1,1.2
		c0.3,0.5,0.6,1.1,0.7,1.7c0.2,0.7,0.3,1.5,0.3,2.4c0,1.2-0.2,2.2-0.7,3.1s-1.1,1.6-1.9,2.2s-1.7,1.1-2.8,1.4
		c-1.1,0.3-2.2,0.5-3.4,0.5c-3.3,0-5.9-0.7-7.5-2c-1.7-1.3-2.6-3.3-2.7-6h4.6c0,1.2,0.5,2.2,1.4,2.9s2.1,1.1,3.5,1.1
		c1.5,0,2.7-0.3,3.5-0.9s1.2-1.4,1.2-2.3c0-0.4,0-0.7-0.1-1.1c-0.1-0.3-0.3-0.6-0.5-0.9c-0.3-0.3-0.6-0.5-1.1-0.7s-1.1-0.4-1.8-0.6
		c-1.8-0.4-3.3-0.8-4.5-1.2c-1.3-0.4-2.3-0.9-3.2-1.5s-1.4-1.3-1.8-2.1c-0.4-0.8-0.6-1.9-0.6-3.2c0-1,0.2-1.9,0.5-2.8
		s0.9-1.6,1.6-2.2s1.6-1.1,2.6-1.5s2.3-0.6,3.7-0.6c1.4,0,2.6,0.2,3.7,0.6s2.1,0.9,2.9,1.6s1.4,1.5,1.8,2.5s0.7,2,0.7,3.2
		L343.9,424.1L343.9,424.1z"/>
	<path d="M355.4,441.8v-23.9h8.9c1.5,0,3,0.3,4.3,0.8s2.4,1.3,3.4,2.3c0.9,1,1.7,2.2,2.2,3.7c0.5,1.4,0.8,3.1,0.8,4.9
		s-0.2,3.5-0.7,5s-1.1,2.8-2,3.9s-1.9,1.9-3.1,2.5s-2.6,0.9-4,0.9L355.4,441.8L355.4,441.8z M364,437.7c2.1,0,3.6-0.7,4.6-2
		c0.9-1.4,1.4-3.4,1.4-6.1c0-1.3-0.1-2.5-0.3-3.5c-0.2-1-0.6-1.7-1.1-2.4c-0.5-0.6-1.2-1.1-2-1.3c-0.8-0.3-1.8-0.4-2.9-0.4h-3.6
		v15.7L364,437.7L364,437.7z"/>
	<path d="M381.4,441.8v-23.9h16.9v4.2h-12.2v5.1h11.2v4.2h-11.2v6.2h12.8v4.2L381.4,441.8L381.4,441.8z"/>
	<path d="M417.8,424.1c-0.1-1.2-0.5-2.1-1.3-2.7c-0.7-0.6-1.8-0.9-3.3-0.9c-2.7,0-4.1,1-4.1,2.9c0,0.7,0.3,1.3,0.8,1.7
		c0.6,0.5,1.5,0.9,2.7,1.2c1.5,0.4,2.8,0.7,3.8,1c1.1,0.3,2.1,0.7,3,1.1c0.5,0.2,1,0.5,1.4,0.8s0.8,0.7,1.1,1.2
		c0.3,0.5,0.6,1.1,0.7,1.7c0.2,0.7,0.3,1.5,0.3,2.4c0,1.2-0.2,2.2-0.7,3.1s-1.1,1.6-1.9,2.2s-1.7,1.1-2.8,1.4
		c-1.1,0.3-2.2,0.5-3.4,0.5c-3.3,0-5.9-0.7-7.5-2c-1.7-1.3-2.6-3.3-2.7-6h4.6c0,1.2,0.5,2.2,1.4,2.9c0.9,0.7,2.1,1.1,3.5,1.1
		c1.5,0,2.7-0.3,3.5-0.9s1.2-1.4,1.2-2.3c0-0.4,0-0.7-0.1-1.1c-0.1-0.3-0.3-0.6-0.5-0.9c-0.3-0.3-0.6-0.5-1.1-0.7s-1.1-0.4-1.8-0.6
		c-1.8-0.4-3.3-0.8-4.5-1.2c-1.3-0.4-2.3-0.9-3.2-1.5s-1.4-1.3-1.8-2.1c-0.4-0.8-0.6-1.9-0.6-3.2c0-1,0.2-1.9,0.5-2.8
		s0.9-1.6,1.6-2.2s1.6-1.1,2.6-1.5s2.3-0.6,3.7-0.6c1.4,0,2.6,0.2,3.7,0.6s2.1,0.9,2.8,1.6c0.8,0.7,1.4,1.5,1.8,2.5s0.7,2,0.7,3.2
		L417.8,424.1L417.8,424.1z"/>
	<path d="M429.2,441.8v-23.9h4.8v23.9H429.2z"/>
	<path d="M457.9,441l-0.1-2.4c-0.6,1-1.4,1.8-2.7,2.4c-1.2,0.6-2.6,0.8-4.2,0.8s-3-0.4-4.3-1.1s-2.4-1.7-3.3-2.8
		c-0.9-1.2-1.6-2.6-2.1-4.1s-0.7-3.2-0.7-4.8c0-1.8,0.2-3.4,0.7-5c0.5-1.5,1.2-2.9,2.1-4c0.9-1.2,2.1-2.1,3.5-2.7s3-1,4.9-1
		c1.4,0,2.6,0.2,3.8,0.6c1.2,0.4,2.2,1,3.1,1.7s1.6,1.6,2.1,2.6s0.9,2.1,1,3.3h-4.8c-0.1-0.6-0.3-1.1-0.6-1.6s-0.7-0.9-1.1-1.3
		c-0.5-0.4-1-0.6-1.6-0.9c-0.6-0.2-1.2-0.3-1.9-0.3c-1.9,0-3.5,0.8-4.6,2.2s-1.7,3.7-1.7,6.5c0,1,0.1,2,0.4,3c0.2,1,0.6,1.9,1.1,2.7
		c0.5,0.8,1.2,1.5,2,2s1.8,0.8,2.9,0.8c0.8,0,1.5-0.1,2.2-0.4s1.3-0.7,1.8-1.2s0.9-1.1,1.2-1.7c0.3-0.7,0.4-1.4,0.4-2.1h-5.1v-4h9.6
		v12.9h-4V441z"/>
	<path d="M486.1,441.8l-9.8-16.1v16.1h-4.5v-23.9h5.1l9.1,15.4v-15.4h4.5v23.9H486.1z"/>
	<path d="M497.2,441.8v-23.9h16.9v4.2h-12.2v5.1h11.2v4.2h-11.2v6.2h12.8v4.2L497.2,441.8L497.2,441.8z"/>
	<path d="M534,441.8v-6.2c0-1.2-0.3-2-0.8-2.5s-1.5-0.7-2.8-0.7h-5.1v9.4h-4.7v-23.9h11.6c1.1,0,2,0.2,2.9,0.5s1.6,0.8,2.2,1.4
		c0.6,0.6,1.1,1.3,1.4,2.2c0.3,0.9,0.5,1.8,0.5,2.8c0,1.3-0.3,2.4-0.9,3.4c-0.6,1-1.4,1.7-2.5,2.1c1,0.3,1.7,0.9,2.2,1.5
		c0.4,0.7,0.6,1.7,0.6,3.1v6.8H534V441.8z M525.3,422v6.4h6c1.3,0,2.2-0.3,2.7-0.9s0.8-1.4,0.8-2.3s-0.3-1.7-0.8-2.3
		c-0.5-0.6-1.4-0.9-2.6-0.9L525.3,422L525.3,422z"/>
	<path d="M558.4,441.8l6.6-23.9h3.8l-6.7,23.9H558.4z"/>
	<path d="M602,417.1h4.9V433c0,2.9-0.8,5.1-2.5,6.6c-1.6,1.5-4,2.2-7,2.2c-2.8,0-5-0.7-6.6-2.1s-2.4-3.5-2.4-6.4v-16.2h4.9v15.7
		c0,1.5,0.4,2.7,1.1,3.5c0.7,0.9,1.7,1.3,3,1.3c3.1,0,4.6-1.5,4.6-4.6V417.1z"/>
	<path d="M627.2,441.8l-4.4-8.2l-4.6,8.2h-5.6l7.4-12.2l-7-11.7h5.7l4.1,7.7l4.2-7.7h5.6l-7,11.5l7.5,12.4L627.2,441.8L627.2,441.8z
		"/>
	<g>
		<g>
			<polygon class="st0Pointer" points="40.8,417 44.9,417 45,419.8 44.2,420.3 44.3,421 45.6,421.5 63,422 62.9,425.1 51,425.6 50.8,435.3 
				50.1,439.5 46.3,440.8 35.2,440.8 31.6,439.8 28.1,438.6 27.9,425.6 29.4,424.5 30.1,423.9 31.6,422.8 32.5,422.1 33,421.6 
				34.7,420.2 36.6,419.9 36.9,419.3 39.8,418 			"/>
		</g>
		<g>
			<g>
				<rect x="40.4" y="421.5" width="22" height="0.1"/>
				<polygon points="62.9,421 39.9,421 39.9,422 62.9,422 				"/>
			</g>
			<g>
				<rect x="63.4" y="422.5" width="0.2" height="2.2"/>
				<polygon points="64.1,422 62.9,422 62.9,425.2 64.1,425.2 				"/>
			</g>
			<g>
				<rect x="45.9" y="425.6" width="16.5" height="0.2"/>
				<polygon points="62.9,425.1 45.4,425.1 45.4,426.3 62.9,426.3 				"/>
			</g>
			<g>
				<rect x="51.2" y="426" width="0.2" height="8.9"/>
				<polygon points="51.9,425.6 50.7,425.6 50.7,435.5 51.9,435.5 				"/>
			</g>
			<g>
				<rect x="47.9" y="430.7" width="3.2" height="0.2"/>
				<polygon points="51.5,430.2 47.3,430.2 47.3,431.4 51.5,431.4 				"/>
			</g>
			<g>
				<rect x="50.1" y="435.8" width="0.2" height="3.2"/>
				<polygon points="50.8,435.3 49.6,435.3 49.6,439.5 50.8,439.5 				"/>
			</g>
			<g>
				<rect x="47.1" y="440" width="3.2" height="0.2"/>
				<polygon points="50.8,439.5 46.6,439.5 46.6,440.6 50.8,440.6 				"/>
			</g>
			<g>
				<rect x="46.9" y="435.8" width="3.2" height="0.2"/>
				<polygon points="50.6,435.3 46.4,435.3 46.4,436.5 50.6,436.5 				"/>
			</g>
			<g>
				<rect x="45.4" y="417.5" width="0.2" height="1.8"/>
				<polygon points="46.2,417 44.9,417 44.9,419.8 46.2,419.8 				"/>
			</g>
			<g>
				<rect x="41.3" y="416.4" width="3.2" height="0.2"/>
				<polygon points="44.9,415.9 40.8,415.9 40.8,417 44.9,417 				"/>
			</g>
			<g>
				<rect x="37.3" y="418.7" width="1.5" height="0.2"/>
				<polygon points="39.3,418.2 36.9,418.2 36.9,419.4 39.3,419.4 				"/>
			</g>
			<g>
				<rect x="34.9" y="419.8" width="1.5" height="0.2"/>
				<polygon points="36.9,419.3 34.3,419.3 34.3,420.5 36.9,420.5 				"/>
			</g>
			<g>
				<rect x="39.9" y="417.6" width="0.5" height="0.2"/>
				<polygon points="40.9,417 39.3,417 39.3,418.2 40.9,418.2 				"/>
			</g>
			<g>
				<rect x="44" y="420.3" width="0.5" height="0.2"/>
				<polygon points="45,419.8 43.5,419.8 43.5,421 45,421 				"/>
			</g>
			<g>
				<rect x="33.3" y="421" width="0.5" height="0.2"/>
				<polygon points="34.3,420.5 32.9,420.5 32.9,421.6 34.3,421.6 				"/>
			</g>
			<g>
				<rect x="35.8" y="441.1" width="10.5" height="0.2"/>
				<polygon points="46.8,440.6 35.3,440.6 35.3,441.8 46.8,441.8 				"/>
			</g>
			<g>
				<rect x="31.6" y="440.1" width="3.2" height="0.2"/>
				<polygon points="35.3,439.6 31.1,439.6 31.1,440.8 35.3,440.8 				"/>
			</g>
			<g>
				<rect x="27.6" y="439" width="3.2" height="0.2"/>
				<polygon points="31.3,438.5 27.1,438.5 27.1,439.6 31.3,439.6 				"/>
			</g>
			<g>
				<rect x="27.6" y="426.6" width="0.2" height="11.5"/>
				<polygon points="28.3,426 27.1,426 27.1,438.6 28.3,438.6 				"/>
			</g>
			<g>
				<rect x="31.9" y="422.1" width="0.5" height="0.2"/>
				<polygon points="32.9,421.6 31.4,421.6 31.4,422.8 32.9,422.8 				"/>
			</g>
			<g>
				<rect x="30.5" y="423.3" width="0.5" height="0.2"/>
				<polygon points="31.5,422.8 30,422.8 30,424 31.5,424 				"/>
			</g>
			<g>
				<rect x="29.1" y="424.5" width="0.5" height="0.2"/>
				<polygon points="30.1,424 28.6,424 28.6,425.1 30.1,425.1 				"/>
			</g>
			<g>
				<rect x="27.6" y="425.6" width="0.5" height="0.2"/>
				<polygon points="28.6,425 27.1,425 27.1,426.2 28.6,426.2 				"/>
			</g>
			<g>
				<rect x="32.5" y="435.5" width="7.8" height="0.2"/>
				<polygon points="40.9,435 32,435 32,436.1 40.9,436.1 				"/>
			</g>
			<g>
				<rect x="32.5" y="431.7" width="7.8" height="0.2"/>
				<polygon points="40.9,431.2 32,431.2 32,432.4 40.9,432.4 				"/>
			</g>
			<g>
				<rect x="32.5" y="428" width="7.8" height="0.2"/>
				<polygon points="40.9,427.5 32,427.5 32,428.6 40.9,428.6 				"/>
			</g>
		</g>
	</g></a>
</g>
<g id="FRONTEND">
		<a href="../pages/frontend.html" target="_parent"> <rect x="22.1" y="363.8" class="st0" width="527" height="36"/>
	<path d="M83.7,384.1v10.1h-4.8v-23.9h16.3v4.2H83.7v5.4h10.1v4.2L83.7,384.1L83.7,384.1z"/>
	<path d="M114.7,394.2V388c0-1.2-0.3-2-0.8-2.5s-1.5-0.7-2.8-0.7H106v9.4h-4.7v-23.9h11.6c1.1,0,2,0.2,2.9,0.5s1.6,0.8,2.2,1.4
		s1.1,1.3,1.4,2.2c0.3,0.9,0.5,1.8,0.5,2.8c0,1.3-0.3,2.4-0.9,3.4s-1.4,1.7-2.5,2.1c1,0.3,1.7,0.9,2.2,1.5c0.4,0.7,0.6,1.7,0.6,3.1
		v6.8h-4.6V394.2z M106,374.5v6.4h6c1.3,0,2.2-0.3,2.7-0.9s0.8-1.4,0.8-2.3s-0.3-1.7-0.8-2.3c-0.5-0.6-1.4-0.9-2.6-0.9L106,374.5
		L106,374.5z"/>
	<path d="M137.1,395c-3.5,0-6.3-1.1-8.2-3.2c-1.9-2.1-2.9-5.3-2.9-9.3c0-2,0.2-3.8,0.7-5.4s1.2-3,2.1-4.1c0.9-1.1,2.1-2,3.5-2.6
		s2.9-0.9,4.7-0.9s3.3,0.3,4.7,0.9s2.5,1.4,3.4,2.6c0.9,1.1,1.6,2.5,2.1,4.1s0.7,3.5,0.7,5.5c0,4.1-0.9,7.2-2.8,9.3
		C143.4,394,140.6,395,137.1,395z M137.1,390.8c0.9,0,1.7-0.2,2.4-0.5c0.8-0.3,1.4-0.8,2-1.5s1-1.5,1.3-2.5s0.5-2.3,0.5-3.7
		c0-2.8-0.5-5-1.6-6.4c-1.1-1.5-2.6-2.2-4.6-2.2s-3.6,0.7-4.7,2.2c-1.1,1.5-1.6,3.6-1.6,6.4s0.5,4.9,1.6,6.2
		C133.5,390.1,135.1,390.8,137.1,390.8z"/>
	<path d="M168.8,394.2l-9.8-16.1v16.1h-4.5v-23.9h5.1l9.1,15.4v-15.4h4.5v23.9H168.8z"/>
	<path d="M186.2,394.2v-19.7h-6.9v-4.2H198v4.2h-6.9v19.7H186.2z"/>
	<path d="M204.1,394.2v-23.9H221v4.2h-12.2v5.1H220v4.2h-11.2v6.2h12.8v4.2L204.1,394.2L204.1,394.2z"/>
	<path d="M241.8,394.2l-9.8-16.1v16.1h-4.5v-23.9h5.1l9.1,15.4v-15.4h4.5v23.9H241.8z"/>
	<path d="M253,394.2v-23.9h8.9c1.5,0,3,0.3,4.3,0.8s2.4,1.3,3.4,2.3c0.9,1,1.7,2.2,2.2,3.7c0.5,1.4,0.8,3.1,0.8,4.9s-0.2,3.5-0.7,5
		s-1.1,2.8-2,3.9s-1.9,1.9-3.1,2.5s-2.6,0.9-4,0.9L253,394.2L253,394.2z M261.6,390.2c2.1,0,3.6-0.7,4.6-2c0.9-1.4,1.4-3.4,1.4-6.1
		c0-1.3-0.1-2.5-0.3-3.5c-0.2-1-0.6-1.7-1.1-2.4c-0.5-0.6-1.2-1.1-2-1.3c-0.8-0.3-1.8-0.4-2.9-0.4h-3.6v15.7L261.6,390.2
		L261.6,390.2z"/>
	<path d="M278.6,384.1v-3.6h8.6v3.6H278.6z"/>
	<path d="M307.2,369.9h4.9v15.9c0,2.9-0.8,5.1-2.5,6.6c-1.6,1.5-4,2.2-7,2.2c-2.8,0-5-0.7-6.6-2.1s-2.4-3.5-2.4-6.4v-16.2h4.9v15.8
		c0,1.5,0.4,2.7,1.1,3.5c0.7,0.9,1.7,1.3,3,1.3c3.1,0,4.6-1.5,4.6-4.6V369.9z"/>
	<path d="M325.1,394.2v-19.7h-6.9v-4.2h18.7v4.2H330v19.7H325.1z"/>
	<path d="M350.1,394.2l-7.8-23.9h5.1l5,16.8l5-16.8h5l-7.8,23.9H350.1z"/>
	<path d="M368.5,394.2v-23.9h16.9v4.2h-12.2v5.1h11.2v4.2h-11.2v6.2H386v4.2L368.5,394.2L368.5,394.2z"/>
	<path d="M412.2,386c-0.3,1.4-0.7,2.6-1.2,3.7c-0.6,1.1-1.2,2.1-2.1,2.8c-0.8,0.8-1.8,1.4-2.9,1.8s-2.3,0.6-3.7,0.6
		c-1.5,0-2.9-0.3-4.2-0.8c-1.3-0.5-2.4-1.3-3.4-2.4c-0.9-1.1-1.7-2.4-2.2-3.9s-0.8-3.4-0.8-5.4s0.2-3.8,0.7-5.5
		c0.5-1.6,1.2-3,2.1-4.1s2-2,3.4-2.6c1.3-0.6,2.8-0.9,4.4-0.9c1.4,0,2.7,0.2,3.9,0.7c1.2,0.4,2.2,1.1,3,1.8c0.8,0.8,1.5,1.7,2,2.8
		c0.5,1.1,0.8,2.2,0.9,3.4h-4.8c-0.3-1.4-0.9-2.4-1.9-3.2c-0.9-0.8-2-1.1-3.1-1.1c-2,0-3.5,0.8-4.4,2.2c-0.9,1.5-1.4,3.6-1.4,6.2
		c0,2.7,0.5,4.7,1.4,6.2s2.3,2.2,4.2,2.2c1.4,0,2.6-0.4,3.4-1.2c0.9-0.8,1.5-2,1.8-3.5h4.9V386z"/>
	<path d="M432.2,394.2l-6.8-10.8l-2.6,2.6v8.1h-4.7v-23.9h4.7v9.7l8.8-9.7h6.2l-9.1,9.4l9.3,14.5L432.2,394.2L432.2,394.2z"/>
	<path d="M444.1,394.2v-23.9h4.8v19.5h11.4v4.4H444.1z"/>
	<path d="M482.3,394.2l-1.5-4.9h-8.5l-1.6,4.9h-5.1l8.2-23.9h5.6l8.1,23.9H482.3z M476.6,375.7L476.6,375.7l-3,9.5h5.8L476.6,375.7z
		"/>
	<path d="M507,394.2V388c0-1.2-0.3-2-0.8-2.5s-1.5-0.7-2.8-0.7h-5.1v9.4h-4.7v-23.9h11.6c1.1,0,2,0.2,2.9,0.5s1.6,0.8,2.2,1.4
		s1.1,1.3,1.4,2.2c0.3,0.9,0.5,1.8,0.5,2.8c0,1.3-0.3,2.4-0.9,3.4s-1.4,1.7-2.5,2.1c1,0.3,1.7,0.9,2.2,1.5c0.4,0.7,0.6,1.7,0.6,3.1
		v6.8H507V394.2z M498.3,374.5v6.4h6c1.3,0,2.2-0.3,2.7-0.9s0.8-1.4,0.8-2.3s-0.3-1.7-0.8-2.3c-0.5-0.6-1.4-0.9-2.6-0.9L498.3,374.5
		L498.3,374.5z"/>
	<path d="M518.6,394.2v-23.9h16.9v4.2h-12.2v5.1h11.2v4.2h-11.2v6.2h12.8v4.2L518.6,394.2L518.6,394.2z"/>
	<g>
		<g>
			<polygon class="st0Pointer" points="40.8,370 44.9,370 45,372.8 44.2,373.3 44.3,374 45.6,374.5 63,375 62.9,378.1 51,378.6 50.8,388.3 
				50.1,392.5 46.3,393.8 35.2,393.8 31.6,392.8 28.1,391.6 27.9,378.6 29.4,377.5 30.1,376.9 31.6,375.8 32.5,375.1 33,374.6 
				34.7,373.2 36.6,372.9 36.9,372.3 39.8,371 			"/>
		</g>
		<g>
			<g>
				<rect x="40.4" y="374.5" width="22" height="0.1"/>
				<polygon points="62.9,374 39.9,374 39.9,375 62.9,375 				"/>
			</g>
			<g>
				<rect x="63.4" y="375.5" width="0.2" height="2.2"/>
				<polygon points="64.1,375 62.9,375 62.9,378.2 64.1,378.2 				"/>
			</g>
			<g>
				<rect x="45.9" y="378.6" width="16.5" height="0.2"/>
				<polygon points="62.9,378.1 45.4,378.1 45.4,379.3 62.9,379.3 				"/>
			</g>
			<g>
				<rect x="51.2" y="379" width="0.2" height="8.9"/>
				<polygon points="51.9,378.6 50.7,378.6 50.7,388.5 51.9,388.5 				"/>
			</g>
			<g>
				<rect x="47.9" y="383.7" width="3.2" height="0.2"/>
				<polygon points="51.5,383.2 47.3,383.2 47.3,384.4 51.5,384.4 				"/>
			</g>
			<g>
				<rect x="50.1" y="388.8" width="0.2" height="3.2"/>
				<polygon points="50.8,388.3 49.6,388.3 49.6,392.5 50.8,392.5 				"/>
			</g>
			<g>
				<rect x="47.1" y="393" width="3.2" height="0.2"/>
				<polygon points="50.8,392.5 46.6,392.5 46.6,393.6 50.8,393.6 				"/>
			</g>
			<g>
				<rect x="46.9" y="388.8" width="3.2" height="0.2"/>
				<polygon points="50.6,388.3 46.4,388.3 46.4,389.5 50.6,389.5 				"/>
			</g>
			<g>
				<rect x="45.4" y="370.5" width="0.2" height="1.8"/>
				<polygon points="46.2,370 44.9,370 44.9,372.8 46.2,372.8 				"/>
			</g>
			<g>
				<rect x="41.3" y="369.4" width="3.2" height="0.2"/>
				<polygon points="44.9,368.9 40.8,368.9 40.8,370 44.9,370 				"/>
			</g>
			<g>
				<rect x="37.3" y="371.7" width="1.5" height="0.2"/>
				<polygon points="39.3,371.2 36.9,371.2 36.9,372.4 39.3,372.4 				"/>
			</g>
			<g>
				<rect x="34.9" y="372.8" width="1.5" height="0.2"/>
				<polygon points="36.9,372.3 34.3,372.3 34.3,373.5 36.9,373.5 				"/>
			</g>
			<g>
				<rect x="39.9" y="370.6" width="0.5" height="0.2"/>
				<polygon points="40.9,370 39.3,370 39.3,371.2 40.9,371.2 				"/>
			</g>
			<g>
				<rect x="44" y="373.3" width="0.5" height="0.2"/>
				<polygon points="45,372.8 43.5,372.8 43.5,374 45,374 				"/>
			</g>
			<g>
				<rect x="33.3" y="374" width="0.5" height="0.2"/>
				<polygon points="34.3,373.5 32.9,373.5 32.9,374.6 34.3,374.6 				"/>
			</g>
			<g>
				<rect x="35.8" y="394.1" width="10.5" height="0.2"/>
				<polygon points="46.8,393.6 35.3,393.6 35.3,394.8 46.8,394.8 				"/>
			</g>
			<g>
				<rect x="31.6" y="393.1" width="3.2" height="0.2"/>
				<polygon points="35.3,392.6 31.1,392.6 31.1,393.8 35.3,393.8 				"/>
			</g>
			<g>
				<rect x="27.6" y="392" width="3.2" height="0.2"/>
				<polygon points="31.3,391.5 27.1,391.5 27.1,392.6 31.3,392.6 				"/>
			</g>
			<g>
				<rect x="27.6" y="379.6" width="0.2" height="11.5"/>
				<polygon points="28.3,379 27.1,379 27.1,391.6 28.3,391.6 				"/>
			</g>
			<g>
				<rect x="31.9" y="375.1" width="0.5" height="0.2"/>
				<polygon points="32.9,374.6 31.4,374.6 31.4,375.8 32.9,375.8 				"/>
			</g>
			<g>
				<rect x="30.5" y="376.3" width="0.5" height="0.2"/>
				<polygon points="31.5,375.8 30,375.8 30,377 31.5,377 				"/>
			</g>
			<g>
				<rect x="29.1" y="377.5" width="0.5" height="0.2"/>
				<polygon points="30.1,377 28.6,377 28.6,378.1 30.1,378.1 				"/>
			</g>
			<g>
				<rect x="27.6" y="378.6" width="0.5" height="0.2"/>
				<polygon points="28.6,378 27.1,378 27.1,379.2 28.6,379.2 				"/>
			</g>
			<g>
				<rect x="32.5" y="388.5" width="7.8" height="0.2"/>
				<polygon points="40.9,388 32,388 32,389.1 40.9,389.1 				"/>
			</g>
			<g>
				<rect x="32.5" y="384.7" width="7.8" height="0.2"/>
				<polygon points="40.9,384.2 32,384.2 32,385.4 40.9,385.4 				"/>
			</g>
			<g>
				<rect x="32.5" y="381" width="7.8" height="0.2"/>
				<polygon points="40.9,380.5 32,380.5 32,381.6 40.9,381.6 				"/>
			</g>
		</g>
	</g></a>
</g>
<g id="LEAF1">
	<g>
		<path class="st1" d="M616.1,210.2c-104-7.9-115.3-120.5-115.3-120.5S599.6,90.5,616.1,210.2L616.1,210.2L616.1,210.2z"/>
		<path class="st2" d="M612.7,206.7c-97.4-8.7-109.1-114-109.1-114S596.1,94.7,612.7,206.7L612.7,206.7L612.7,206.7z"/>
		<g>
			<g>
				<path class="st3" d="M594.9,188.2c-4.5,5.1-15,4-15,4l-12.9-0.9c0,0,6.4-2.4,9.9-3.2C587.8,185.2,596.6,188.3,594.9,188.2z"/>
				<path class="st3" d="M595.4,187.5c3.7-6,1.4-18.2,1.4-18.2l-2.3-15c0,0-1.2,7.9-1.5,12.1C592,179.6,595.7,189.5,595.4,187.5z"/>
			</g>
			<g>
				<path class="st3" d="M578.9,171.1c-4.5,5.1-14.9,4.1-14.9,4.1l-12.9-0.9c0,0,6.5-2.1,9.9-3.2C569.6,168,578.9,171.1,578.9,171.1
					z"/>
				<path class="st3" d="M579.1,170.8c3.7-6,1.6-18,1.6-18l-2.3-15c0,0-0.9,7.9-1.5,12.1C575.4,160.3,579.1,170.8,579.1,170.8z"/>
			</g>
			<g>
				<path class="st3" d="M561,153.3c-3.5,5.1-11.9,3.9-11.9,3.9l-10.5-1.1c0,0,5.2-2,7.9-3.1C553.3,150.1,561,153.3,561,153.3z"/>
				<path class="st3" d="M561.9,152c3.8-4.8,1.8-14.5,1.8-14.5l-2.2-12.1c0,0-1,6.4-1.6,9.7C558.3,143.4,561.9,152,561.9,152z"/>
			</g>
			<g>
				<path class="st3" d="M543.7,135.4c-2.8,5-9.8,3.8-9.8,3.8l-8.7-1.2c0,0,4.2-1.9,6.4-3C537.4,132.1,543.7,135.4,543.7,135.4z"/>
				<path class="st3" d="M544.8,134c3.8-3.8,2-11.9,2-11.9l-2-10c0,0-1,5.3-1.8,8C541.2,126.8,544.8,134,544.8,134z"/>
			</g>
			<g>
				<path class="st3" d="M527.8,118.4c-2.2,4.2-8.7,2.5-8.7,2.5l-8.1-1.9c0,0,3.8-1.3,5.7-2.1C521.6,114.8,527.8,118.4,527.8,118.4z
					"/>
				<path class="st3" d="M528.7,117.2c3.3-3.1,0.9-10.6,0.9-10.6l-2.6-9.3c0,0-0.6,4.6-1,7.1C524.9,110.4,528.7,117.2,528.7,117.2z"
					/>
			</g>
		</g>
		<path class="st4" d="M503.7,92.6c175.3,183.2,82.9,86.6,82.9,86.6L503.7,92.6z"/>
	</g>
</g>
<g id="LEAF2">
	<g>
		<path class="st1" d="M537.2,340.4C558,213.9,650.6,235.6,650.6,235.6S638.5,358.5,537.2,340.4L537.2,340.4L537.2,340.4z"/>
		<path class="st5" d="M539.9,338.7C559.3,221,647.7,238.2,647.7,238.2S634.5,351.8,539.9,338.7L539.9,338.7L539.9,338.7z"/>
		<g>
			<g>
				<path class="st6" d="M557.5,322.3c-3.6-7.1-1.4-19.7-1.4-19.7l2.3-15.6c0,0,1.2,8.6,1.5,13.2
					C560.9,314.5,557.2,324.4,557.5,322.3z"/>
				<path class="st6" d="M558,323.1c4.5,6.4,14.8,7.2,14.8,7.2l12.7,1.6c0,0-6.3-3.8-9.8-5.4C565,321.3,556.3,323,558,323.1z"/>
			</g>
			<g>
				<path class="st6" d="M573.6,307.7c-3.6-7.1-1.5-19.6-1.5-19.6l2.3-15.6c0,0,0.9,8.7,1.5,13.2
					C577.3,297.2,573.6,307.7,573.6,307.7z"/>
				<path class="st6" d="M573.8,308c4.5,6.4,14.7,7.4,14.7,7.4l12.7,1.6c0,0-6.4-3.4-9.8-5.4C583,306.5,573.8,308,573.8,308z"/>
			</g>
			<g>
				<path class="st6" d="M590.5,290.9c-3.8-5.8-1.7-15.9-1.7-15.9l2.2-12.6c0,0,1,7.1,1.6,10.7C594.1,282.4,590.5,290.9,590.5,290.9
					z"/>
				<path class="st6" d="M591.5,292.5c3.4,6.1,11.8,6.6,11.8,6.6l10.3,0.9c0,0-5.2-3.1-7.8-4.9C599,290.6,591.5,292.5,591.5,292.5z"
					/>
			</g>
			<g>
				<path class="st6" d="M607.5,275c-3.8-4.9-1.9-13.2-1.9-13.2l2-10.3c0,0,1,5.8,1.7,8.9C611,268.1,607.5,275,607.5,275z"/>
				<path class="st6" d="M608.5,276.7c2.7,5.9,9.6,6,9.6,6l8.6,0.5c0,0-4.2-2.9-6.4-4.5C614.9,274.5,608.5,276.7,608.5,276.7z"/>
			</g>
			<g>
				<path class="st6" d="M623.5,260.4c-3.2-4-0.9-11.6-0.9-11.6l2.6-9.4c0,0,0.6,5.1,1,7.7C627.2,253.8,623.5,260.4,623.5,260.4z"/>
				<path class="st6" d="M624.3,261.8c2.2,5,8.6,4.4,8.6,4.4l8-0.5c0,0-3.8-2.1-5.7-3.4C630.4,259.2,624.3,261.8,624.3,261.8z"/>
			</g>
		</g>
		<path class="st5" d="M647.9,238.4C474.7,399.8,566,314.8,566,314.8L647.9,238.4z"/>
	</g>
</g>
<g id="FULL_x5F_IMAGE">
	<g>
		<polygon class="st6" points="39.9,488.8 3.3,488.8 21.5,461.3 		"/>
		<polygon class="st6" points="76.4,488.8 39.8,488.8 58,461.3 		"/>
		<polygon class="st6" points="112.9,488.8 76.3,488.8 94.5,461.3 		"/>
		<polygon class="st6" points="149.4,488.8 112.8,488.8 131,461.3 		"/>
		<polygon class="st6" points="186,488.8 149.4,488.8 167.6,461.3 		"/>
		<polygon class="st6" points="222.5,488.8 185.9,488.8 204.1,461.3 		"/>
		<polygon class="st6" points="259,488.8 222.4,488.8 240.6,461.3 		"/>
		<polygon class="st6" points="296,488.8 259.4,488.8 277.6,461.3 		"/>
		<polygon class="st6" points="332.5,488.8 295.9,488.8 314.1,461.3 		"/>
		<polygon class="st6" points="369,488.8 332.4,488.8 350.6,461.3 		"/>
		<polygon class="st6" points="405.5,488.8 368.9,488.8 387.1,461.3 		"/>
		<polygon class="st7" points="21.5,531.8 3.3,504.3 39.9,504.3 		"/>
		<polygon class="st7" points="58,531.8 39.8,504.3 76.4,504.3 		"/>
		<polygon class="st7" points="94.5,531.8 76.3,504.3 112.9,504.3 		"/>
		<polygon class="st7" points="131,531.8 112.8,504.3 149.4,504.3 		"/>
		<polygon class="st7" points="167.6,531.8 149.4,504.3 186,504.3 		"/>
		<polygon class="st7" points="204.1,531.8 185.9,504.3 222.5,504.3 		"/>
		<polygon class="st7" points="240.6,531.8 222.4,504.3 259,504.3 		"/>
		<polygon class="st7" points="277.6,531.8 259.4,504.3 296,504.3 		"/>
		<polygon class="st7" points="314.1,531.8 295.9,504.3 332.5,504.3 		"/>
		<polygon class="st7" points="350.6,531.8 332.4,504.3 369,504.3 		"/>
		<polygon class="st7" points="387.1,531.8 368.9,504.3 405.5,504.3 		"/>
		<rect x="3.4" y="494" width="658.7" height="4"/>
		<polygon class="st6" points="441.9,488.8 405.3,488.8 423.5,461.3 		"/>
		<polygon class="st6" points="478.4,488.8 441.8,488.8 460,461.3 		"/>
		<polygon class="st6" points="514.9,488.8 478.3,488.8 496.5,461.3 		"/>
		<polygon class="st6" points="551.4,488.8 514.8,488.8 533,461.3 		"/>
		<polygon class="st6" points="588,488.8 551.4,488.8 569.6,461.3 		"/>
		<polygon class="st6" points="624.5,488.8 587.9,488.8 606.1,461.3 		"/>
		<polygon class="st7" points="423.5,531.8 405.3,504.3 441.9,504.3 		"/>
		<polygon class="st7" points="460,531.8 441.8,504.3 478.4,504.3 		"/>
		<polygon class="st7" points="496.5,531.8 478.3,504.3 514.9,504.3 		"/>
		<polygon class="st7" points="533,531.8 514.8,504.3 551.4,504.3 		"/>
		<polygon class="st7" points="569.6,531.8 551.4,504.3 588,504.3 		"/>
		<polygon class="st7" points="606.1,531.8 587.9,504.3 624.5,504.3 		"/>
		<polygon class="st6" points="660.5,488.8 623.9,488.8 642.1,461.3 		"/>
		<polygon class="st7" points="642.1,531.8 623.9,504.3 660.5,504.3 		"/>
	</g>
	<g>
		<polygon class="st6" points="39.9,34.8 3.3,34.8 21.5,7.3 		"/>
		<polygon class="st6" points="76.4,34.8 39.8,34.8 58,7.3 		"/>
		<polygon class="st6" points="112.9,34.8 76.3,34.8 94.5,7.3 		"/>
		<polygon class="st6" points="149.4,34.8 112.8,34.8 131,7.3 		"/>
		<polygon class="st6" points="186,34.8 149.4,34.8 167.6,7.3 		"/>
		<polygon class="st6" points="222.5,34.8 185.9,34.8 204.1,7.3 		"/>
		<polygon class="st6" points="259,34.8 222.4,34.8 240.6,7.3 		"/>
		<polygon class="st6" points="296,34.8 259.4,34.8 277.6,7.3 		"/>
		<polygon class="st6" points="332.5,34.8 295.9,34.8 314.1,7.3 		"/>
		<polygon class="st6" points="369,34.8 332.4,34.8 350.6,7.3 		"/>
		<polygon class="st6" points="405.5,34.8 368.9,34.8 387.1,7.3 		"/>
		<polygon class="st7" points="21.5,77.8 3.3,50.3 39.9,50.3 		"/>
		<polygon class="st7" points="58,77.8 39.8,50.3 76.4,50.3 		"/>
		<polygon class="st7" points="94.5,77.8 76.3,50.3 112.9,50.3 		"/>
		<polygon class="st7" points="131,77.8 112.8,50.3 149.4,50.3 		"/>
		<polygon class="st7" points="167.6,77.8 149.4,50.3 186,50.3 		"/>
		<polygon class="st7" points="204.1,77.8 185.9,50.3 222.5,50.3 		"/>
		<polygon class="st7" points="240.6,77.8 222.4,50.3 259,50.3 		"/>
		<polygon class="st7" points="277.6,77.8 259.4,50.3 296,50.3 		"/>
		<polygon class="st7" points="314.1,77.8 295.9,50.3 332.5,50.3 		"/>
		<polygon class="st7" points="350.6,77.8 332.4,50.3 369,50.3 		"/>
		<polygon class="st7" points="387.1,77.8 368.9,50.3 405.5,50.3 		"/>
		<rect x="3.4" y="40" width="658.7" height="4"/>
		<polygon class="st6" points="441.9,34.8 405.3,34.8 423.5,7.3 		"/>
		<polygon class="st6" points="478.4,34.8 441.8,34.8 460,7.3 		"/>
		<polygon class="st6" points="514.9,34.8 478.3,34.8 496.5,7.3 		"/>
		<polygon class="st6" points="551.4,34.8 514.8,34.8 533,7.3 		"/>
		<polygon class="st6" points="588,34.8 551.4,34.8 569.6,7.3 		"/>
		<polygon class="st6" points="624.5,34.8 587.9,34.8 606.1,7.3 		"/>
		<polygon class="st7" points="423.5,77.8 405.3,50.3 441.9,50.3 		"/>
		<polygon class="st7" points="460,77.8 441.8,50.3 478.4,50.3 		"/>
		<polygon class="st7" points="496.5,77.8 478.3,50.3 514.9,50.3 		"/>
		<polygon class="st7" points="533,77.8 514.8,50.3 551.4,50.3 		"/>
		<polygon class="st7" points="569.6,77.8 551.4,50.3 588,50.3 		"/>
		<polygon class="st7" points="606.1,77.8 587.9,50.3 624.5,50.3 		"/>
		<polygon class="st6" points="660.5,34.8 623.9,34.8 642.1,7.3 		"/>
		<polygon class="st7" points="642.1,77.8 623.9,50.3 660.5,50.3 		"/>
	</g>
	<g>
		<g>
			<path class="st8" d="M104.3,329.2v-64.9l-17,64.9H68.5l-16.8-64.6v64.6H34v-94.7h27.9l16.4,69.4l16.4-69.4h27.4v94.7L104.3,329.2
				L104.3,329.2z"/>
			<path class="st8" d="M142.1,329.2v-94.7h19v94.7H142.1z"/>
			<path class="st8" d="M237.5,329.2l-38.9-63.6v63.6h-17.7v-94.7h20.2l36.1,60.9v-60.9h17.9v94.7L237.5,329.2L237.5,329.2z"/>
			<path class="st8" d="M338,329.2l-5.7-19.5h-33.5l-6.4,19.5h-20.1l32.4-94.7h22l32,94.7H338z M315.4,255.7h-0.1l-11.6,37.6h23.1
				L315.4,255.7z"/>
			<path class="st8" d="M446.3,329.2v-64.9l-17,64.9h-18.9l-16.8-64.6v64.6h-17.7v-94.7h27.9l16.4,69.4l16.4-69.4h27.5v94.7
				L446.3,329.2L446.3,329.2z"/>
			<path class="st8" d="M484.1,329.2v-94.7h19v94.7H484.1z"/>
		</g>
		<g>
			<path class="st9" d="M104.3,329.2v-64.9l-17,64.9H68.5l-16.8-64.6v64.6H34v-94.7h27.9l16.4,69.4l16.4-69.4h27.4v94.7L104.3,329.2
				L104.3,329.2z"/>
			<path class="st9" d="M142.1,329.2v-94.7h19v94.7H142.1z"/>
			<path class="st9" d="M237.5,329.2l-38.9-63.6v63.6h-17.7v-94.7h20.2l36.1,60.9v-60.9h17.9v94.7L237.5,329.2L237.5,329.2z"/>
			<path class="st9" d="M338,329.2l-5.7-19.5h-33.5l-6.4,19.5h-20.1l32.4-94.7h22l32,94.7H338z M315.4,255.7h-0.1l-11.6,37.6h23.1
				L315.4,255.7z"/>
			<path class="st9" d="M446.3,329.2v-64.9l-17,64.9h-18.9l-16.8-64.6v64.6h-17.7v-94.7h27.9l16.4,69.4l16.4-69.4h27.5v94.7
				L446.3,329.2L446.3,329.2z"/>
			<path class="st9" d="M484.1,329.2v-94.7h19v94.7H484.1z"/>
		</g>
		<g>
			<path d="M104.3,329.2v-64.9l-17,64.9H68.5l-16.8-64.6v64.6H34v-94.7h27.9l16.4,69.4l16.4-69.4h27.4v94.7L104.3,329.2L104.3,329.2
				z"/>
			<path d="M142.1,329.2v-94.7h19v94.7H142.1z"/>
			<path d="M237.5,329.2l-38.9-63.6v63.6h-17.7v-94.7h20.2l36.1,60.9v-60.9h17.9v94.7L237.5,329.2L237.5,329.2z"/>
			<path d="M338,329.2l-5.7-19.5h-33.5l-6.4,19.5h-20.1l32.4-94.7h22l32,94.7H338z M315.4,255.7h-0.1l-11.6,37.6h23.1L315.4,255.7z"
				/>
			<path d="M446.3,329.2v-64.9l-17,64.9h-18.9l-16.8-64.6v64.6h-17.7v-94.7h27.9l16.4,69.4l16.4-69.4h27.5v94.7L446.3,329.2
				L446.3,329.2z"/>
			<path d="M484.1,329.2v-94.7h19v94.7H484.1z"/>
		</g>
	</g>
	<g>
		<g>
			<path class="st10" d="M118.2,166.7c-1.1,5.8-2.9,11-5.3,15.6s-5.5,8.6-9.2,12c-3.7,3.3-8,5.9-12.8,7.7s-10.2,2.7-16.1,2.7
				c-6.6,0-12.7-1.1-18.4-3.3s-10.6-5.6-14.8-10c-4.1-4.4-7.4-9.9-9.8-16.4s-3.6-14.1-3.6-22.8c0-8.5,1.1-16.1,3.3-23
				c2.2-6.8,5.3-12.6,9.3-17.3c4-4.7,9-8.3,14.8-10.8s12.3-3.8,19.5-3.8c6.3,0,11.9,0.9,17,2.8s9.5,4.4,13.2,7.7
				c3.7,3.3,6.6,7.1,8.8,11.6c2.2,4.4,3.5,9.2,4,14.2h-21c-1.4-5.8-4.1-10.2-8.2-13.4c-4-3.2-8.6-4.8-13.6-4.8
				c-8.8,0-15.3,3.2-19.4,9.5c-4.1,6.3-6.2,15-6.2,26c0,11.2,2,19.9,6.1,26.1c4.1,6.2,10.2,9.3,18.4,9.3c6.3,0,11.3-1.7,15.1-5.1
				c3.8-3.4,6.4-8.3,7.8-14.6h21.1V166.7z"/>
			<path class="st10" d="M136.8,201.2V100.6h21.1v100.6H136.8z"/>
			<path class="st10" d="M179.8,201.2V100.6h21.1v82.3h49.8v18.3L179.8,201.2L179.8,201.2z"/>
			<path class="st10" d="M270.1,201.2V100.6h21.1v82.3H341v18.3L270.1,201.2L270.1,201.2z"/>
			<path class="st10" d="M430.2,201.2l-6.4-20.8h-37.1l-7.1,20.8h-22.3l35.9-100.6h24.4l35.5,100.6H430.2z M405.2,123.2h-0.1
				l-12.9,40h25.6L405.2,123.2z"/>
		</g>
		<g>
			<path class="st11" d="M118.2,166.7c-1.1,5.8-2.9,11-5.3,15.6s-5.5,8.6-9.2,12c-3.7,3.3-8,5.9-12.8,7.7s-10.2,2.7-16.1,2.7
				c-6.6,0-12.7-1.1-18.4-3.3s-10.6-5.6-14.8-10c-4.1-4.4-7.4-9.9-9.8-16.4s-3.6-14.1-3.6-22.8c0-8.5,1.1-16.1,3.3-23
				c2.2-6.8,5.3-12.6,9.3-17.3c4-4.7,9-8.3,14.8-10.8s12.3-3.8,19.5-3.8c6.3,0,11.9,0.9,17,2.8s9.5,4.4,13.2,7.7
				c3.7,3.3,6.6,7.1,8.8,11.6c2.2,4.4,3.5,9.2,4,14.2h-21c-1.4-5.8-4.1-10.2-8.2-13.4c-4-3.2-8.6-4.8-13.6-4.8
				c-8.8,0-15.3,3.2-19.4,9.5c-4.1,6.3-6.2,15-6.2,26c0,11.2,2,19.9,6.1,26.1c4.1,6.2,10.2,9.3,18.4,9.3c6.3,0,11.3-1.7,15.1-5.1
				c3.8-3.4,6.4-8.3,7.8-14.6h21.1V166.7z"/>
			<path class="st11" d="M136.8,201.2V100.6h21.1v100.6H136.8z"/>
			<path class="st11" d="M179.8,201.2V100.6h21.1v82.3h49.8v18.3L179.8,201.2L179.8,201.2z"/>
			<path class="st11" d="M270.1,201.2V100.6h21.1v82.3H341v18.3L270.1,201.2L270.1,201.2z"/>
			<path class="st11" d="M430.2,201.2l-6.4-20.8h-37.1l-7.1,20.8h-22.3l35.9-100.6h24.4l35.5,100.6H430.2z M405.2,123.2h-0.1
				l-12.9,40h25.6L405.2,123.2z"/>
		</g>
		<g>
			<path d="M118.2,166.7c-1.1,5.8-2.9,11-5.3,15.6s-5.5,8.6-9.2,12c-3.7,3.3-8,5.9-12.8,7.7s-10.2,2.7-16.1,2.7
				c-6.6,0-12.7-1.1-18.4-3.3s-10.6-5.6-14.8-10c-4.1-4.4-7.4-9.9-9.8-16.4s-3.6-14.1-3.6-22.8c0-8.5,1.1-16.1,3.3-23
				c2.2-6.8,5.3-12.6,9.3-17.3c4-4.7,9-8.3,14.8-10.8s12.3-3.8,19.5-3.8c6.3,0,11.9,0.9,17,2.8s9.5,4.4,13.2,7.7
				c3.7,3.3,6.6,7.1,8.8,11.6c2.2,4.4,3.5,9.2,4,14.2h-21c-1.4-5.8-4.1-10.2-8.2-13.4c-4-3.2-8.6-4.8-13.6-4.8
				c-8.8,0-15.3,3.2-19.4,9.5c-4.1,6.3-6.2,15-6.2,26c0,11.2,2,19.9,6.1,26.1c4.1,6.2,10.2,9.3,18.4,9.3c6.3,0,11.3-1.7,15.1-5.1
				c3.8-3.4,6.4-8.3,7.8-14.6h21.1V166.7z"/>
			<path d="M136.8,201.2V100.6h21.1v100.6H136.8z"/>
			<path d="M179.8,201.2V100.6h21.1v82.3h49.8v18.3L179.8,201.2L179.8,201.2z"/>
			<path d="M270.1,201.2V100.6h21.1v82.3H341v18.3L270.1,201.2L270.1,201.2z"/>
			<path d="M430.2,201.2l-6.4-20.8h-37.1l-7.1,20.8h-22.3l35.9-100.6h24.4l35.5,100.6H430.2z M405.2,123.2h-0.1l-12.9,40h25.6
				L405.2,123.2z"/>
		</g>
	</g>
</g>
</svg>
