<?xml version="1.0" encoding="utf-8"?>
<!-- Generator: Adobe Illustrator 21.0.2, SVG Export Plug-In . SVG Version: 6.00 Build 0)  -->
<svg version="1.1" id="Lager_1" xmlns="http://www.w3.org/2000/svg" xmlns:xlink="http://www.w3.org/1999/xlink" x="0px" y="0px"
	 viewBox="0 0 667 75" style="enable-background:new 0 0 667 75;" xml:space="preserve">
<style type="text/css">
	.st0{fill:#FF00FF;}
	.st1{fill:#00FFFF;}
</style>
<g>
	<polygon class="st0" points="40.9,30.8 4.3,30.8 22.5,3.3 	"/>
	<polygon class="st0" points="77.4,30.8 40.8,30.8 59,3.3 	"/>
	<polygon class="st0" points="113.9,30.8 77.3,30.8 95.5,3.3 	"/>
	<polygon class="st0" points="150.4,30.8 113.8,30.8 132,3.3 	"/>
	<polygon class="st0" points="187,30.8 150.4,30.8 168.6,3.3 	"/>
	<polygon class="st0" points="223.5,30.8 186.9,30.8 205.1,3.3 	"/>
	<polygon class="st0" points="260,30.8 223.4,30.8 241.6,3.3 	"/>
	<polygon class="st0" points="297,30.8 260.4,30.8 278.6,3.3 	"/>
	<polygon class="st0" points="333.5,30.8 296.9,30.8 315.1,3.3 	"/>
	<polygon class="st0" points="370,30.8 333.4,30.8 351.6,3.3 	"/>
	<polygon class="st0" points="406.5,30.8 369.9,30.8 388.1,3.3 	"/>
	<polygon class="st1" points="22.5,73.8 4.3,46.3 40.9,46.3 	"/>
	<polygon class="st1" points="59,73.8 40.8,46.3 77.4,46.3 	"/>
	<polygon class="st1" points="95.5,73.8 77.3,46.3 113.9,46.3 	"/>
	<polygon class="st1" points="132,73.8 113.8,46.3 150.4,46.3 	"/>
	<polygon class="st1" points="168.6,73.8 150.4,46.3 187,46.3 	"/>
	<polygon class="st1" points="205.1,73.8 186.9,46.3 223.5,46.3 	"/>
	<polygon class="st1" points="241.6,73.8 223.4,46.3 260,46.3 	"/>
	<polygon class="st1" points="278.6,73.8 260.4,46.3 297,46.3 	"/>
	<polygon class="st1" points="315.1,73.8 296.9,46.3 333.5,46.3 	"/>
	<polygon class="st1" points="351.6,73.8 333.4,46.3 370,46.3 	"/>
	<polygon class="st1" points="388.1,73.8 369.9,46.3 406.5,46.3 	"/>
	<rect x="4.4" y="36" width="658.7" height="4"/>
	<polygon class="st0" points="442.9,30.8 406.3,30.8 424.5,3.3 	"/>
	<polygon class="st0" points="479.4,30.8 442.8,30.8 461,3.3 	"/>
	<polygon class="st0" points="515.9,30.8 479.3,30.8 497.5,3.3 	"/>
	<polygon class="st0" points="552.4,30.8 515.8,30.8 534,3.3 	"/>
	<polygon class="st0" points="589,30.8 552.4,30.8 570.6,3.3 	"/>
	<polygon class="st0" points="625.5,30.8 588.9,30.8 607.1,3.3 	"/>
	<polygon class="st1" points="424.5,73.8 406.3,46.3 442.9,46.3 	"/>
	<polygon class="st1" points="461,73.8 442.8,46.3 479.4,46.3 	"/>
	<polygon class="st1" points="497.5,73.8 479.3,46.3 515.9,46.3 	"/>
	<polygon class="st1" points="534,73.8 515.8,46.3 552.4,46.3 	"/>
	<polygon class="st1" points="570.6,73.8 552.4,46.3 589,46.3 	"/>
	<polygon class="st1" points="607.1,73.8 588.9,46.3 625.5,46.3 	"/>
	<polygon class="st0" points="661.5,30.8 624.9,30.8 643.1,3.3 	"/>
	<polygon class="st1" points="643.1,73.8 624.9,46.3 661.5,46.3 	"/>
</g>
</svg>
