<?xml version="1.0" encoding="utf-8"?>
<!-- Generator: Adobe Illustrator 21.0.2, SVG Export Plug-In . SVG Version: 6.00 Build 0)  -->
<svg version="1.1" id="Lager_1" xmlns="http://www.w3.org/2000/svg" xmlns:xlink="http://www.w3.org/1999/xlink" x="0px" y="0px"
	 viewBox="0 0 1238 213" style="enable-background:new 0 0 1238 213;" xml:space="preserve">
<style type="text/css">
	.st0{fill:#00FFFF;}
	.st1{fill:#FFFF00;stroke:#FFFFFF;stroke-miterlimit:10;}
</style>
<rect x="-2.7" y="-3.6" class="st0" width="1240" height="216"/>
<g>
	<g>
		<path class="st1" d="M20.3,137.6V71.2h13.9v66.4H20.3z"/>
		<path class="st1" d="M85,137.6L56.6,93v44.6H43.7V71.2h14.7l26.4,42.7V71.2h13v66.4H85z"/>
		<path class="st1" d="M125.4,137.6V82.8h-20V71.2h54v11.6h-20.1v54.8H125.4z"/>
		<path class="st1" d="M167.2,137.6V71.2H216v11.6h-35.3V97h32.5v11.7h-32.5v17.1h36.9v11.8H167.2z"/>
		<path class="st1" d="M263.6,137.6v-17.1c0-3.2-0.7-5.5-2.2-6.9c-1.5-1.4-4.2-2-8.2-2h-14.8v26h-13.5V71.2h33.7
			c3.1,0,5.9,0.5,8.4,1.4c2.5,1,4.6,2.3,6.4,4c1.8,1.7,3.2,3.7,4.2,6.1c1,2.4,1.4,4.9,1.4,7.6c0,3.6-0.9,6.8-2.5,9.6
			c-1.7,2.8-4.1,4.7-7.4,5.9c2.9,0.9,5,2.4,6.2,4.3c1.2,1.9,1.9,4.8,1.9,8.7v18.8H263.6z M238.4,82.7v17.7h17.4
			c3.7,0,6.4-0.8,7.9-2.5c1.5-1.7,2.3-3.8,2.3-6.3c0-2.6-0.8-4.7-2.2-6.4c-1.5-1.7-4-2.5-7.4-2.5H238.4z"/>
		<path class="st1" d="M333.3,137.6l-4.2-13.7h-24.5l-4.7,13.7h-14.7l23.7-66.4H325l23.4,66.4H333.3z M316.8,86.1h-0.1l-8.5,26.4
			h16.9L316.8,86.1z"/>
		<path class="st1" d="M396.8,137.6l-19.7-29.9l-7.4,7.3v22.6H356V71.2h13.7v27l25.4-27h18l-26.2,26.2l26.8,40.2H396.8z"/>
		<path class="st1" d="M439.1,137.6V82.8h-20V71.2h54v11.6H453v54.8H439.1z"/>
		<path class="st1" d="M480.9,137.6V71.2h13.9v66.4H480.9z"/>
		<path class="st1" d="M535.4,139.9c-10.3,0-18.1-3-23.6-9s-8.2-14.6-8.2-25.9c0-5.6,0.7-10.6,2.1-15.1c1.4-4.5,3.5-8.2,6.2-11.3
			c2.7-3.1,6.1-5.5,10-7.1c3.9-1.6,8.5-2.5,13.6-2.5c5.1,0,9.6,0.8,13.6,2.5c4,1.6,7.3,4,9.9,7.1c2.7,3.1,4.7,7,6.1,11.5
			s2.1,9.6,2.1,15.2c0,11.5-2.7,20.1-8.1,25.9C553.5,137,545.7,139.9,535.4,139.9z M535.4,128c2.5,0,4.8-0.4,7-1.4
			c2.2-0.9,4.1-2.3,5.8-4.1c1.6-1.8,2.9-4.2,3.9-7.1c0.9-2.9,1.4-6.3,1.4-10.2c0-7.9-1.5-13.8-4.6-17.9c-3.1-4.1-7.5-6.1-13.4-6.1
			c-5.9,0-10.4,2-13.5,6.1c-3.1,4.1-4.7,10-4.7,17.9c0,7.9,1.6,13.6,4.8,17.2C525.1,126.2,529.6,128,535.4,128z"/>
		<path class="st1" d="M617.2,137.6L588.8,93v44.6h-12.9V71.2h14.7l26.4,42.7V71.2h13v66.4H617.2z"/>
		<path class="st1" d="M677.1,90.8c-0.3-3.4-1.6-5.9-3.7-7.6c-2.1-1.7-5.3-2.5-9.6-2.5c-7.9,0-11.8,2.7-11.8,8.1
			c0,1.9,0.8,3.5,2.5,4.8c1.6,1.3,4.2,2.4,7.8,3.2c4.3,1,8,1.9,11.1,2.8c3.1,0.9,6,1.9,8.6,3c1.5,0.6,2.9,1.4,4.2,2.2s2.4,2,3.3,3.4
			c0.9,1.3,1.6,2.9,2.2,4.8c0.5,1.9,0.8,4.1,0.8,6.8c0,3.2-0.7,6-2,8.5c-1.3,2.5-3.1,4.6-5.4,6.2c-2.3,1.7-4.9,3-8,3.9
			c-3.1,0.9-6.3,1.3-9.7,1.3c-9.7,0-16.9-1.9-21.8-5.6c-4.9-3.7-7.4-9.3-7.7-16.6h13.4c0.1,3.4,1.5,6.1,4.2,8c2.7,2,6.1,3,10.1,3
			c4.4,0,7.7-0.8,10-2.4c2.3-1.6,3.4-3.8,3.4-6.5c0-1.1-0.1-2.1-0.4-3c-0.3-0.9-0.8-1.7-1.5-2.5c-0.8-0.7-1.8-1.4-3.2-1.9
			c-1.3-0.6-3.1-1.1-5.2-1.6c-5.1-1.1-9.5-2.1-13.2-3.2c-3.7-1.1-6.8-2.5-9.2-4.1c-2.4-1.6-4.2-3.6-5.3-6c-1.1-2.3-1.7-5.3-1.7-8.9
			c0-2.7,0.5-5.3,1.5-7.7s2.5-4.5,4.6-6.2c2.1-1.8,4.6-3.2,7.6-4.2c3-1,6.6-1.6,10.8-1.6c4,0,7.6,0.5,10.8,1.6
			c3.2,1,5.9,2.5,8.2,4.4c2.3,1.9,4.1,4.2,5.3,6.9c1.3,2.7,2,5.7,2.1,9H677.1z"/>
		<path class="st1" d="M700.3,137.6V71.2H726c4.5,0,8.6,0.8,12.4,2.2c3.8,1.5,7,3.6,9.8,6.4c2.7,2.8,4.8,6.2,6.3,10.2
			c1.5,4,2.3,8.5,2.3,13.6c0,5.1-0.7,9.7-2,13.9c-1.4,4.2-3.3,7.7-5.8,10.7c-2.5,3-5.6,5.3-9.1,6.9c-3.5,1.6-7.4,2.5-11.7,2.5H700.3
			z M725.3,126.3c6.1,0,10.5-1.9,13.2-5.7c2.7-3.8,4.1-9.4,4.1-16.9c0-3.7-0.3-6.9-1-9.6c-0.7-2.7-1.8-4.9-3.2-6.5
			c-1.5-1.7-3.4-2.9-5.8-3.7c-2.3-0.8-5.2-1.1-8.5-1.1h-10.3v43.6H725.3z"/>
		<path class="st1" d="M765.5,137.6V71.2h48.8v11.6H779V97h32.5v11.7H779v17.1h36.9v11.8H765.5z"/>
		<path class="st1" d="M860.8,90.8c-0.3-3.4-1.6-5.9-3.7-7.6c-2.1-1.7-5.3-2.5-9.6-2.5c-7.9,0-11.8,2.7-11.8,8.1
			c0,1.9,0.8,3.5,2.5,4.8c1.6,1.3,4.2,2.4,7.8,3.2c4.3,1,8,1.9,11.1,2.8c3.1,0.9,6,1.9,8.6,3c1.5,0.6,2.9,1.4,4.2,2.2s2.4,2,3.3,3.4
			c0.9,1.3,1.6,2.9,2.2,4.8c0.5,1.9,0.8,4.1,0.8,6.8c0,3.2-0.7,6-2,8.5c-1.3,2.5-3.1,4.6-5.4,6.2c-2.3,1.7-4.9,3-8,3.9
			c-3.1,0.9-6.3,1.3-9.7,1.3c-9.7,0-16.9-1.9-21.8-5.6c-4.9-3.7-7.4-9.3-7.7-16.6h13.4c0.1,3.4,1.5,6.1,4.2,8c2.7,2,6.1,3,10.1,3
			c4.4,0,7.7-0.8,10-2.4c2.3-1.6,3.4-3.8,3.4-6.5c0-1.1-0.1-2.1-0.4-3c-0.3-0.9-0.8-1.7-1.5-2.5c-0.8-0.7-1.8-1.4-3.2-1.9
			c-1.3-0.6-3.1-1.1-5.2-1.6c-5.1-1.1-9.5-2.1-13.2-3.2c-3.7-1.1-6.8-2.5-9.2-4.1c-2.4-1.6-4.2-3.6-5.3-6c-1.1-2.3-1.7-5.3-1.7-8.9
			c0-2.7,0.5-5.3,1.5-7.7s2.5-4.5,4.6-6.2c2.1-1.8,4.6-3.2,7.6-4.2c3-1,6.6-1.6,10.8-1.6c4,0,7.6,0.5,10.8,1.6
			c3.2,1,5.9,2.5,8.2,4.4c2.3,1.9,4.1,4.2,5.3,6.9c1.3,2.7,2,5.7,2.1,9H860.8z"/>
		<path class="st1" d="M884,137.6V71.2h13.9v66.4H884z"/>
		<path class="st1" d="M956.9,137.6l-0.3-6.6c-1.6,2.8-4.2,5-7.7,6.6c-3.5,1.6-7.6,2.3-12.2,2.3c-4.6,0-8.8-1-12.4-2.9
			c-3.7-2-6.9-4.6-9.5-7.9c-2.6-3.3-4.7-7.1-6.1-11.4c-1.4-4.3-2.1-8.8-2.1-13.3c0-4.9,0.7-9.5,2.1-13.8c1.4-4.3,3.5-8.1,6.2-11.2
			c2.7-3.2,6.1-5.7,10.2-7.6c4.1-1.8,8.8-2.8,14.2-2.8c3.9,0,7.6,0.6,11,1.7c3.4,1.1,6.4,2.7,9,4.7c2.6,2,4.6,4.4,6.2,7.2
			c1.6,2.8,2.5,5.8,2.8,9.1h-14c-0.2-1.5-0.7-3-1.6-4.4c-0.9-1.4-2-2.5-3.3-3.5c-1.3-1-2.9-1.8-4.6-2.4c-1.8-0.6-3.6-0.9-5.5-0.9
			c-5.6,0-10.1,2.1-13.5,6.2c-3.4,4.2-5,10.2-5,18.1c0,2.7,0.3,5.5,1,8.2c0.7,2.8,1.8,5.3,3.3,7.5c1.5,2.2,3.4,4.1,5.8,5.5
			c2.3,1.4,5.1,2.1,8.3,2.1c2.3,0,4.4-0.4,6.4-1.2c2-0.8,3.7-1.9,5.1-3.3c1.5-1.4,2.6-3,3.5-4.9c0.8-1.8,1.2-3.8,1.2-5.9h-14.7
			v-11.1h27.7v35.7H956.9z"/>
		<path class="st1" d="M1028.5,137.6L1000.1,93v44.6h-12.9V71.2h14.7l26.4,42.7V71.2h13v66.4H1028.5z"/>
		<path class="st1" d="M1048,137.6l19-66.4h10.9l-19.2,66.4H1048z"/>
		<path class="st1" d="M1124.5,71.2h14.2v44.3c0,8.1-2.4,14.1-7.1,18.2c-4.7,4.1-11.5,6.1-20.2,6.1c-8.1,0-14.5-1.9-19.2-5.8
			c-4.7-3.9-7-9.8-7-17.8V71.2h14.1V115c0,4.1,1,7.4,3.1,9.8c2.1,2.4,5,3.6,8.8,3.6c8.9,0,13.3-4.3,13.3-12.9V71.2z"/>
		<path class="st1" d="M1187.4,137.6l-12.7-22.8l-13.4,22.8h-16.2l21.5-33.9l-20.3-32.5h16.4l12,21.5l12.1-21.5h16.1l-20.2,31.9
			l21.6,34.5H1187.4z"/>
	</g>
	<g>
		<path d="M30.3,137.6V71.2h13.9v66.4H30.3z"/>
		<path d="M95,137.6L66.6,93v44.6H53.7V71.2h14.7l26.4,42.7V71.2h13v66.4H95z"/>
		<path d="M135.4,137.6V82.8h-20V71.2h54v11.6h-20.1v54.8H135.4z"/>
		<path d="M177.2,137.6V71.2H226v11.6h-35.3V97h32.5v11.7h-32.5v17.1h36.9v11.8H177.2z"/>
		<path d="M273.6,137.6v-17.1c0-3.2-0.7-5.5-2.2-6.9c-1.5-1.4-4.2-2-8.2-2h-14.8v26h-13.5V71.2h33.7c3.1,0,5.9,0.5,8.4,1.4
			c2.5,1,4.6,2.3,6.4,4c1.8,1.7,3.2,3.7,4.2,6.1c1,2.4,1.4,4.9,1.4,7.6c0,3.6-0.9,6.8-2.5,9.6c-1.7,2.8-4.1,4.7-7.4,5.9
			c2.9,0.9,5,2.4,6.2,4.3c1.2,1.9,1.9,4.8,1.9,8.7v18.8H273.6z M248.4,82.7v17.7h17.4c3.7,0,6.4-0.8,7.9-2.5
			c1.5-1.7,2.3-3.8,2.3-6.3c0-2.6-0.8-4.7-2.2-6.4c-1.5-1.7-4-2.5-7.4-2.5H248.4z"/>
		<path d="M343.3,137.6l-4.2-13.7h-24.5l-4.7,13.7h-14.7l23.7-66.4H335l23.4,66.4H343.3z M326.8,86.1h-0.1l-8.5,26.4h16.9
			L326.8,86.1z"/>
		<path d="M406.8,137.6l-19.7-29.9l-7.4,7.3v22.6H366V71.2h13.7v27l25.4-27h18l-26.2,26.2l26.8,40.2H406.8z"/>
		<path d="M449.1,137.6V82.8h-20V71.2h54v11.6H463v54.8H449.1z"/>
		<path d="M490.9,137.6V71.2h13.9v66.4H490.9z"/>
		<path d="M545.4,139.9c-10.3,0-18.1-3-23.6-9s-8.2-14.6-8.2-25.9c0-5.6,0.7-10.6,2.1-15.1c1.4-4.5,3.5-8.2,6.2-11.3
			c2.7-3.1,6.1-5.5,10-7.1c3.9-1.6,8.5-2.5,13.6-2.5c5.1,0,9.6,0.8,13.6,2.5c4,1.6,7.3,4,9.9,7.1c2.7,3.1,4.7,7,6.1,11.5
			s2.1,9.6,2.1,15.2c0,11.5-2.7,20.1-8.1,25.9C563.5,137,555.7,139.9,545.4,139.9z M545.4,128c2.5,0,4.8-0.4,7-1.4
			c2.2-0.9,4.1-2.3,5.8-4.1c1.6-1.8,2.9-4.2,3.9-7.1c0.9-2.9,1.4-6.3,1.4-10.2c0-7.9-1.5-13.8-4.6-17.9c-3.1-4.1-7.5-6.1-13.4-6.1
			c-5.9,0-10.4,2-13.5,6.1c-3.1,4.1-4.7,10-4.7,17.9c0,7.9,1.6,13.6,4.8,17.2C535.1,126.2,539.6,128,545.4,128z"/>
		<path d="M627.2,137.6L598.8,93v44.6h-12.9V71.2h14.7l26.4,42.7V71.2h13v66.4H627.2z"/>
		<path d="M687.1,90.8c-0.3-3.4-1.6-5.9-3.7-7.6c-2.1-1.7-5.3-2.5-9.6-2.5c-7.9,0-11.8,2.7-11.8,8.1c0,1.9,0.8,3.5,2.5,4.8
			c1.6,1.3,4.2,2.4,7.8,3.2c4.3,1,8,1.9,11.1,2.8c3.1,0.9,6,1.9,8.6,3c1.5,0.6,2.9,1.4,4.2,2.2s2.4,2,3.3,3.4
			c0.9,1.3,1.6,2.9,2.2,4.8c0.5,1.9,0.8,4.1,0.8,6.8c0,3.2-0.7,6-2,8.5c-1.3,2.5-3.1,4.6-5.4,6.2c-2.3,1.7-4.9,3-8,3.9
			c-3.1,0.9-6.3,1.3-9.7,1.3c-9.7,0-16.9-1.9-21.8-5.6c-4.9-3.7-7.4-9.3-7.7-16.6h13.4c0.1,3.4,1.5,6.1,4.2,8c2.7,2,6.1,3,10.1,3
			c4.4,0,7.7-0.8,10-2.4c2.3-1.6,3.4-3.8,3.4-6.5c0-1.1-0.1-2.1-0.4-3c-0.3-0.9-0.8-1.7-1.5-2.5c-0.8-0.7-1.8-1.4-3.2-1.9
			c-1.3-0.6-3.1-1.1-5.2-1.6c-5.1-1.1-9.5-2.1-13.2-3.2c-3.7-1.1-6.8-2.5-9.2-4.1c-2.4-1.6-4.2-3.6-5.3-6c-1.1-2.3-1.7-5.3-1.7-8.9
			c0-2.7,0.5-5.3,1.5-7.7s2.5-4.5,4.6-6.2c2.1-1.8,4.6-3.2,7.6-4.2c3-1,6.6-1.6,10.8-1.6c4,0,7.6,0.5,10.8,1.6
			c3.2,1,5.9,2.5,8.2,4.4c2.3,1.9,4.1,4.2,5.3,6.9c1.3,2.7,2,5.7,2.1,9H687.1z"/>
		<path d="M710.3,137.6V71.2H736c4.5,0,8.6,0.8,12.4,2.2c3.8,1.5,7,3.6,9.8,6.4c2.7,2.8,4.8,6.2,6.3,10.2c1.5,4,2.3,8.5,2.3,13.6
			c0,5.1-0.7,9.7-2,13.9c-1.4,4.2-3.3,7.7-5.8,10.7c-2.5,3-5.6,5.3-9.1,6.9c-3.5,1.6-7.4,2.5-11.7,2.5H710.3z M735.3,126.3
			c6.1,0,10.5-1.9,13.2-5.7c2.7-3.8,4.1-9.4,4.1-16.9c0-3.7-0.3-6.9-1-9.6c-0.7-2.7-1.8-4.9-3.2-6.5c-1.5-1.7-3.4-2.9-5.8-3.7
			c-2.3-0.8-5.2-1.1-8.5-1.1h-10.3v43.6H735.3z"/>
		<path d="M775.5,137.6V71.2h48.8v11.6H789V97h32.5v11.7H789v17.1h36.9v11.8H775.5z"/>
		<path d="M870.8,90.8c-0.3-3.4-1.6-5.9-3.7-7.6c-2.1-1.7-5.3-2.5-9.6-2.5c-7.9,0-11.8,2.7-11.8,8.1c0,1.9,0.8,3.5,2.5,4.8
			c1.6,1.3,4.2,2.4,7.8,3.2c4.3,1,8,1.9,11.1,2.8c3.1,0.9,6,1.9,8.6,3c1.5,0.6,2.9,1.4,4.2,2.2s2.4,2,3.3,3.4
			c0.9,1.3,1.6,2.9,2.2,4.8c0.5,1.9,0.8,4.1,0.8,6.8c0,3.2-0.7,6-2,8.5c-1.3,2.5-3.1,4.6-5.4,6.2c-2.3,1.7-4.9,3-8,3.9
			c-3.1,0.9-6.3,1.3-9.7,1.3c-9.7,0-16.9-1.9-21.8-5.6c-4.9-3.7-7.4-9.3-7.7-16.6h13.4c0.1,3.4,1.5,6.1,4.2,8c2.7,2,6.1,3,10.1,3
			c4.4,0,7.7-0.8,10-2.4c2.3-1.6,3.4-3.8,3.4-6.5c0-1.1-0.1-2.1-0.4-3c-0.3-0.9-0.8-1.7-1.5-2.5c-0.8-0.7-1.8-1.4-3.2-1.9
			c-1.3-0.6-3.1-1.1-5.2-1.6c-5.1-1.1-9.5-2.1-13.2-3.2c-3.7-1.1-6.8-2.5-9.2-4.1c-2.4-1.6-4.2-3.6-5.3-6c-1.1-2.3-1.7-5.3-1.7-8.9
			c0-2.7,0.5-5.3,1.5-7.7s2.5-4.5,4.6-6.2c2.1-1.8,4.6-3.2,7.6-4.2c3-1,6.6-1.6,10.8-1.6c4,0,7.6,0.5,10.8,1.6
			c3.2,1,5.9,2.5,8.2,4.4c2.3,1.9,4.1,4.2,5.3,6.9c1.3,2.7,2,5.7,2.1,9H870.8z"/>
		<path d="M894,137.6V71.2h13.9v66.4H894z"/>
		<path d="M966.9,137.6l-0.3-6.6c-1.6,2.8-4.2,5-7.7,6.6c-3.5,1.6-7.6,2.3-12.2,2.3c-4.6,0-8.8-1-12.4-2.9c-3.7-2-6.9-4.6-9.5-7.9
			c-2.6-3.3-4.7-7.1-6.1-11.4c-1.4-4.3-2.1-8.8-2.1-13.3c0-4.9,0.7-9.5,2.1-13.8c1.4-4.3,3.5-8.1,6.2-11.2c2.7-3.2,6.1-5.7,10.2-7.6
			c4.1-1.8,8.8-2.8,14.2-2.8c3.9,0,7.6,0.6,11,1.7c3.4,1.1,6.4,2.7,9,4.7c2.6,2,4.6,4.4,6.2,7.2c1.6,2.8,2.5,5.8,2.8,9.1h-14
			c-0.2-1.5-0.7-3-1.6-4.4c-0.9-1.4-2-2.5-3.3-3.5c-1.3-1-2.9-1.8-4.6-2.4c-1.8-0.6-3.6-0.9-5.5-0.9c-5.6,0-10.1,2.1-13.5,6.2
			c-3.4,4.2-5,10.2-5,18.1c0,2.7,0.3,5.5,1,8.2c0.7,2.8,1.8,5.3,3.3,7.5c1.5,2.2,3.4,4.1,5.8,5.5c2.3,1.4,5.1,2.1,8.3,2.1
			c2.3,0,4.4-0.4,6.4-1.2c2-0.8,3.7-1.9,5.1-3.3c1.5-1.4,2.6-3,3.5-4.9c0.8-1.8,1.2-3.8,1.2-5.9h-14.7v-11.1h27.7v35.7H966.9z"/>
		<path d="M1038.5,137.6L1010.1,93v44.6h-12.9V71.2h14.7l26.4,42.7V71.2h13v66.4H1038.5z"/>
		<path d="M1058,137.6l19-66.4h10.9l-19.2,66.4H1058z"/>
		<path d="M1134.5,71.2h14.2v44.3c0,8.1-2.4,14.1-7.1,18.2c-4.7,4.1-11.5,6.1-20.2,6.1c-8.1,0-14.5-1.9-19.2-5.8
			c-4.7-3.9-7-9.8-7-17.8V71.2h14.1V115c0,4.1,1,7.4,3.1,9.8c2.1,2.4,5,3.6,8.8,3.6c8.9,0,13.3-4.3,13.3-12.9V71.2z"/>
		<path d="M1197.4,137.6l-12.7-22.8l-13.4,22.8h-16.2l21.5-33.9l-20.3-32.5h16.4l12,21.5l12.1-21.5h16.1l-20.2,31.9l21.6,34.5
			H1197.4z"/>
	</g>
</g>
</svg>
