<?xml version="1.0" encoding="utf-8"?>
<!-- Generator: Adobe Illustrator 21.0.2, SVG Export Plug-In . SVG Version: 6.00 Build 0)  -->
<svg version="1.1" id="Lager_1" xmlns="http://www.w3.org/2000/svg" xmlns:xlink="http://www.w3.org/1999/xlink" x="0px" y="0px"
	 viewBox="0 0 1238 213" style="enable-background:new 0 0 1238 213;" xml:space="preserve">
<style type="text/css">
	.st0{fill:#00FFFF;}
	.st1{fill:#FFFF00;stroke:#FFFFFF;stroke-miterlimit:10;}
</style>
<rect x="-2.7" y="-3.6" class="st0" width="1240" height="216"/>
<g>
	<path class="st1" d="M40.3,137.6V71.2h13.9v66.4H40.3z"/>
	<path class="st1" d="M105,137.6L76.6,93v44.6H63.7V71.2h14.7l26.4,42.7V71.2h13v66.4H105z"/>
	<path class="st1" d="M145.4,137.6V82.8h-20V71.2h54v11.6h-20.1v54.8L145.4,137.6L145.4,137.6z"/>
	<path class="st1" d="M187.2,137.6V71.2H236v11.6h-35.3V97h32.5v11.7h-32.5v17.1h36.9v11.8L187.2,137.6L187.2,137.6z"/>
	<path class="st1" d="M283.6,137.6v-17.1c0-3.2-0.7-5.5-2.2-6.9s-4.2-2-8.2-2h-14.8v26h-13.5V71.2h33.7c3.1,0,5.9,0.5,8.4,1.4
		c2.5,1,4.6,2.3,6.4,4s3.2,3.7,4.2,6.1s1.4,4.9,1.4,7.6c0,3.6-0.9,6.8-2.5,9.6c-1.7,2.8-4.1,4.7-7.4,5.9c2.9,0.9,5,2.4,6.2,4.3
		s1.9,4.8,1.9,8.7v18.8L283.6,137.6L283.6,137.6z M258.4,82.7v17.7h17.4c3.7,0,6.4-0.8,7.9-2.5s2.3-3.8,2.3-6.3
		c0-2.6-0.8-4.7-2.2-6.4c-1.5-1.7-4-2.5-7.4-2.5C276.4,82.7,258.4,82.7,258.4,82.7z"/>
	<path class="st1" d="M353.3,137.6l-4.2-13.7h-24.5l-4.7,13.7h-14.7l23.7-66.4H345l23.4,66.4H353.3z M336.8,86.1h-0.1l-8.5,26.4
		h16.9L336.8,86.1z"/>
	<path class="st1" d="M416.8,137.6l-19.7-29.9l-7.4,7.3v22.6H376V71.2h13.7v27l25.4-27h18l-26.2,26.2l26.8,40.2L416.8,137.6
		L416.8,137.6z"/>
	<path class="st1" d="M459.1,137.6V82.8h-20V71.2h54v11.6H473v54.8L459.1,137.6L459.1,137.6z"/>
	<path class="st1" d="M500.9,137.6V71.2h13.9v66.4H500.9z"/>
	<path class="st1" d="M555.4,139.9c-10.3,0-18.1-3-23.6-9c-5.5-6-8.2-14.6-8.2-25.9c0-5.6,0.7-10.6,2.1-15.1s3.5-8.2,6.2-11.3
		c2.7-3.1,6.1-5.5,10-7.1s8.5-2.5,13.6-2.5s9.6,0.8,13.6,2.5c4,1.6,7.3,4,9.9,7.1c2.7,3.1,4.7,7,6.1,11.5s2.1,9.6,2.1,15.2
		c0,11.5-2.7,20.1-8.1,25.9C573.5,137,565.7,139.9,555.4,139.9z M555.4,128c2.5,0,4.8-0.4,7-1.4c2.2-0.9,4.1-2.3,5.8-4.1
		c1.6-1.8,2.9-4.2,3.9-7.1c0.9-2.9,1.4-6.3,1.4-10.2c0-7.9-1.5-13.8-4.6-17.9s-7.5-6.1-13.4-6.1s-10.4,2-13.5,6.1s-4.7,10-4.7,17.9
		s1.6,13.6,4.8,17.2C545.1,126.2,549.6,128,555.4,128z"/>
	<path class="st1" d="M637.2,137.6L608.8,93v44.6h-12.9V71.2h14.7l26.4,42.7V71.2h13v66.4H637.2z"/>
	<path class="st1" d="M697.1,90.8c-0.3-3.4-1.6-5.9-3.7-7.6c-2.1-1.7-5.3-2.5-9.6-2.5c-7.9,0-11.8,2.7-11.8,8.1
		c0,1.9,0.8,3.5,2.5,4.8c1.6,1.3,4.2,2.4,7.8,3.2c4.3,1,8,1.9,11.1,2.8s6,1.9,8.6,3c1.5,0.6,2.9,1.4,4.2,2.2s2.4,2,3.3,3.4
		c0.9,1.3,1.6,2.9,2.2,4.8c0.5,1.9,0.8,4.1,0.8,6.8c0,3.2-0.7,6-2,8.5c-1.3,2.5-3.1,4.6-5.4,6.2c-2.3,1.7-4.9,3-8,3.9
		s-6.3,1.3-9.7,1.3c-9.7,0-16.9-1.9-21.8-5.6c-4.9-3.7-7.4-9.3-7.7-16.6h13.4c0.1,3.4,1.5,6.1,4.2,8c2.7,2,6.1,3,10.1,3
		c4.4,0,7.7-0.8,10-2.4s3.4-3.8,3.4-6.5c0-1.1-0.1-2.1-0.4-3c-0.3-0.9-0.8-1.7-1.5-2.5c-0.8-0.7-1.8-1.4-3.2-1.9
		c-1.3-0.6-3.1-1.1-5.2-1.6c-5.1-1.1-9.5-2.1-13.2-3.2s-6.8-2.5-9.2-4.1s-4.2-3.6-5.3-6c-1.1-2.3-1.7-5.3-1.7-8.9
		c0-2.7,0.5-5.3,1.5-7.7s2.5-4.5,4.6-6.2c2.1-1.8,4.6-3.2,7.6-4.2s6.6-1.6,10.8-1.6c4,0,7.6,0.5,10.8,1.6c3.2,1,5.9,2.5,8.2,4.4
		s4.1,4.2,5.3,6.9c1.3,2.7,2,5.7,2.1,9h-13.1V90.8z"/>
	<path class="st1" d="M720.3,137.6V71.2H746c4.5,0,8.6,0.8,12.4,2.2c3.8,1.5,7,3.6,9.8,6.4c2.7,2.8,4.8,6.2,6.3,10.2
		s2.3,8.5,2.3,13.6s-0.7,9.7-2,13.9c-1.4,4.2-3.3,7.7-5.8,10.7c-2.5,3-5.6,5.3-9.1,6.9c-3.5,1.6-7.4,2.5-11.7,2.5L720.3,137.6
		L720.3,137.6z M745.3,126.3c6.1,0,10.5-1.9,13.2-5.7c2.7-3.8,4.1-9.4,4.1-16.9c0-3.7-0.3-6.9-1-9.6s-1.8-4.9-3.2-6.5
		c-1.5-1.7-3.4-2.9-5.8-3.7c-2.3-0.8-5.2-1.1-8.5-1.1h-10.3v43.6h11.5V126.3z"/>
	<path class="st1" d="M785.5,137.6V71.2h48.8v11.6H799V97h32.5v11.7H799v17.1h36.9v11.8L785.5,137.6L785.5,137.6z"/>
	<path class="st1" d="M880.8,90.8c-0.3-3.4-1.6-5.9-3.7-7.6c-2.1-1.7-5.3-2.5-9.6-2.5c-7.9,0-11.8,2.7-11.8,8.1
		c0,1.9,0.8,3.5,2.5,4.8c1.6,1.3,4.2,2.4,7.8,3.2c4.3,1,8,1.9,11.1,2.8s6,1.9,8.6,3c1.5,0.6,2.9,1.4,4.2,2.2s2.4,2,3.3,3.4
		c0.9,1.3,1.6,2.9,2.2,4.8c0.5,1.9,0.8,4.1,0.8,6.8c0,3.2-0.7,6-2,8.5c-1.3,2.5-3.1,4.6-5.4,6.2c-2.3,1.7-4.9,3-8,3.9
		s-6.3,1.3-9.7,1.3c-9.7,0-16.9-1.9-21.8-5.6c-4.9-3.7-7.4-9.3-7.7-16.6H855c0.1,3.4,1.5,6.1,4.2,8c2.7,2,6.1,3,10.1,3
		c4.4,0,7.7-0.8,10-2.4s3.4-3.8,3.4-6.5c0-1.1-0.1-2.1-0.4-3c-0.3-0.9-0.8-1.7-1.5-2.5c-0.8-0.7-1.8-1.4-3.2-1.9
		c-1.3-0.6-3.1-1.1-5.2-1.6c-5.1-1.1-9.5-2.1-13.2-3.2s-6.8-2.5-9.2-4.1s-4.2-3.6-5.3-6c-1.1-2.3-1.7-5.3-1.7-8.9
		c0-2.7,0.5-5.3,1.5-7.7s2.5-4.5,4.6-6.2c2.1-1.8,4.6-3.2,7.6-4.2s6.6-1.6,10.8-1.6c4,0,7.6,0.5,10.8,1.6c3.2,1,5.9,2.5,8.2,4.4
		s4.1,4.2,5.3,6.9c1.3,2.7,2,5.7,2.1,9h-13.1V90.8z"/>
	<path class="st1" d="M904,137.6V71.2h13.9v66.4H904z"/>
	<path class="st1" d="M976.9,137.6l-0.3-6.6c-1.6,2.8-4.2,5-7.7,6.6s-7.6,2.3-12.2,2.3c-4.6,0-8.8-1-12.4-2.9
		c-3.7-2-6.9-4.6-9.5-7.9c-2.6-3.3-4.7-7.1-6.1-11.4c-1.4-4.3-2.1-8.8-2.1-13.3c0-4.9,0.7-9.5,2.1-13.8c1.4-4.3,3.5-8.1,6.2-11.2
		c2.7-3.2,6.1-5.7,10.2-7.6c4.1-1.8,8.8-2.8,14.2-2.8c3.9,0,7.6,0.6,11,1.7s6.4,2.7,9,4.7s4.6,4.4,6.2,7.2c1.6,2.8,2.5,5.8,2.8,9.1
		h-14c-0.2-1.5-0.7-3-1.6-4.4c-0.9-1.4-2-2.5-3.3-3.5s-2.9-1.8-4.6-2.4c-1.8-0.6-3.6-0.9-5.5-0.9c-5.6,0-10.1,2.1-13.5,6.2
		c-3.4,4.2-5,10.2-5,18.1c0,2.7,0.3,5.5,1,8.2c0.7,2.8,1.8,5.3,3.3,7.5s3.4,4.1,5.8,5.5c2.3,1.4,5.1,2.1,8.3,2.1
		c2.3,0,4.4-0.4,6.4-1.2c2-0.8,3.7-1.9,5.1-3.3c1.5-1.4,2.6-3,3.5-4.9c0.8-1.8,1.2-3.8,1.2-5.9h-14.7v-11.1h27.7v35.7h-11.5V137.6z"
		/>
	<path class="st1" d="M1048.5,137.6L1020.1,93v44.6h-12.9V71.2h14.7l26.4,42.7V71.2h13v66.4H1048.5z"/>
	<path class="st1" d="M1068,137.6l19-66.4h10.9l-19.2,66.4H1068z"/>
	<path class="st1" d="M1144.5,71.2h14.2v44.3c0,8.1-2.4,14.1-7.1,18.2c-4.7,4.1-11.5,6.1-20.2,6.1c-8.1,0-14.5-1.9-19.2-5.8
		c-4.7-3.9-7-9.8-7-17.8v-45h14.1V115c0,4.1,1,7.4,3.1,9.8s5,3.6,8.8,3.6c8.9,0,13.3-4.3,13.3-12.9L1144.5,71.2L1144.5,71.2z"/>
	<path class="st1" d="M1207.4,137.6l-12.7-22.8l-13.4,22.8h-16.2l21.5-33.9l-20.3-32.5h16.4l12,21.5l12.1-21.5h16.1l-20.2,31.9
		l21.6,34.5H1207.4z"/>
</g>
<g>
	<path d="M30.3,137.6V71.2h13.9v66.4H30.3z"/>
	<path d="M95,137.6L66.6,93v44.6H53.7V71.2h14.7l26.4,42.7V71.2h13v66.4H95z"/>
	<path d="M135.4,137.6V82.8h-20V71.2h54v11.6h-20.1v54.8L135.4,137.6L135.4,137.6z"/>
	<path d="M177.2,137.6V71.2H226v11.6h-35.3V97h32.5v11.7h-32.5v17.1h36.9v11.8L177.2,137.6L177.2,137.6z"/>
	<path d="M273.6,137.6v-17.1c0-3.2-0.7-5.5-2.2-6.9s-4.2-2-8.2-2h-14.8v26h-13.5V71.2h33.7c3.1,0,5.9,0.5,8.4,1.4
		c2.5,1,4.6,2.3,6.4,4s3.2,3.7,4.2,6.1s1.4,4.9,1.4,7.6c0,3.6-0.9,6.8-2.5,9.6c-1.7,2.8-4.1,4.7-7.4,5.9c2.9,0.9,5,2.4,6.2,4.3
		s1.9,4.8,1.9,8.7v18.8L273.6,137.6L273.6,137.6z M248.4,82.7v17.7h17.4c3.7,0,6.4-0.8,7.9-2.5s2.3-3.8,2.3-6.3
		c0-2.6-0.8-4.7-2.2-6.4c-1.5-1.7-4-2.5-7.4-2.5C266.4,82.7,248.4,82.7,248.4,82.7z"/>
	<path d="M343.3,137.6l-4.2-13.7h-24.5l-4.7,13.7h-14.7l23.7-66.4H335l23.4,66.4H343.3z M326.8,86.1h-0.1l-8.5,26.4h16.9L326.8,86.1
		z"/>
	<path d="M406.8,137.6l-19.7-29.9l-7.4,7.3v22.6H366V71.2h13.7v27l25.4-27h18l-26.2,26.2l26.8,40.2L406.8,137.6L406.8,137.6z"/>
	<path d="M449.1,137.6V82.8h-20V71.2h54v11.6H463v54.8L449.1,137.6L449.1,137.6z"/>
	<path d="M490.9,137.6V71.2h13.9v66.4H490.9z"/>
	<path d="M545.4,139.9c-10.3,0-18.1-3-23.6-9s-8.2-14.6-8.2-25.9c0-5.6,0.7-10.6,2.1-15.1c1.4-4.5,3.5-8.2,6.2-11.3
		c2.7-3.1,6.1-5.5,10-7.1s8.5-2.5,13.6-2.5s9.6,0.8,13.6,2.5c4,1.6,7.3,4,9.9,7.1c2.7,3.1,4.7,7,6.1,11.5s2.1,9.6,2.1,15.2
		c0,11.5-2.7,20.1-8.1,25.9C563.5,137,555.7,139.9,545.4,139.9z M545.4,128c2.5,0,4.8-0.4,7-1.4c2.2-0.9,4.1-2.3,5.8-4.1
		c1.6-1.8,2.9-4.2,3.9-7.1c0.9-2.9,1.4-6.3,1.4-10.2c0-7.9-1.5-13.8-4.6-17.9s-7.5-6.1-13.4-6.1s-10.4,2-13.5,6.1s-4.7,10-4.7,17.9
		s1.6,13.6,4.8,17.2C535.1,126.2,539.6,128,545.4,128z"/>
	<path d="M627.2,137.6L598.8,93v44.6h-12.9V71.2h14.7l26.4,42.7V71.2h13v66.4H627.2z"/>
	<path d="M687.1,90.8c-0.3-3.4-1.6-5.9-3.7-7.6c-2.1-1.7-5.3-2.5-9.6-2.5c-7.9,0-11.8,2.7-11.8,8.1c0,1.9,0.8,3.5,2.5,4.8
		c1.6,1.3,4.2,2.4,7.8,3.2c4.3,1,8,1.9,11.1,2.8s6,1.9,8.6,3c1.5,0.6,2.9,1.4,4.2,2.2s2.4,2,3.3,3.4c0.9,1.3,1.6,2.9,2.2,4.8
		c0.5,1.9,0.8,4.1,0.8,6.8c0,3.2-0.7,6-2,8.5c-1.3,2.5-3.1,4.6-5.4,6.2c-2.3,1.7-4.9,3-8,3.9s-6.3,1.3-9.7,1.3
		c-9.7,0-16.9-1.9-21.8-5.6c-4.9-3.7-7.4-9.3-7.7-16.6h13.4c0.1,3.4,1.5,6.1,4.2,8c2.7,2,6.1,3,10.1,3c4.4,0,7.7-0.8,10-2.4
		s3.4-3.8,3.4-6.5c0-1.1-0.1-2.1-0.4-3c-0.3-0.9-0.8-1.7-1.5-2.5c-0.8-0.7-1.8-1.4-3.2-1.9c-1.3-0.6-3.1-1.1-5.2-1.6
		c-5.1-1.1-9.5-2.1-13.2-3.2s-6.8-2.5-9.2-4.1s-4.2-3.6-5.3-6c-1.1-2.3-1.7-5.3-1.7-8.9c0-2.7,0.5-5.3,1.5-7.7s2.5-4.5,4.6-6.2
		c2.1-1.8,4.6-3.2,7.6-4.2s6.6-1.6,10.8-1.6c4,0,7.6,0.5,10.8,1.6c3.2,1,5.9,2.5,8.2,4.4s4.1,4.2,5.3,6.9c1.3,2.7,2,5.7,2.1,9h-13.1
		V90.8z"/>
	<path d="M710.3,137.6V71.2H736c4.5,0,8.6,0.8,12.4,2.2c3.8,1.5,7,3.6,9.8,6.4c2.7,2.8,4.8,6.2,6.3,10.2s2.3,8.5,2.3,13.6
		s-0.7,9.7-2,13.9c-1.4,4.2-3.3,7.7-5.8,10.7c-2.5,3-5.6,5.3-9.1,6.9c-3.5,1.6-7.4,2.5-11.7,2.5L710.3,137.6L710.3,137.6z
		 M735.3,126.3c6.1,0,10.5-1.9,13.2-5.7c2.7-3.8,4.1-9.4,4.1-16.9c0-3.7-0.3-6.9-1-9.6s-1.8-4.9-3.2-6.5c-1.5-1.7-3.4-2.9-5.8-3.7
		c-2.3-0.8-5.2-1.1-8.5-1.1h-10.3v43.6h11.5V126.3z"/>
	<path d="M775.5,137.6V71.2h48.8v11.6H789V97h32.5v11.7H789v17.1h36.9v11.8L775.5,137.6L775.5,137.6z"/>
	<path d="M870.8,90.8c-0.3-3.4-1.6-5.9-3.7-7.6c-2.1-1.7-5.3-2.5-9.6-2.5c-7.9,0-11.8,2.7-11.8,8.1c0,1.9,0.8,3.5,2.5,4.8
		c1.6,1.3,4.2,2.4,7.8,3.2c4.3,1,8,1.9,11.1,2.8s6,1.9,8.6,3c1.5,0.6,2.9,1.4,4.2,2.2s2.4,2,3.3,3.4c0.9,1.3,1.6,2.9,2.2,4.8
		c0.5,1.9,0.8,4.1,0.8,6.8c0,3.2-0.7,6-2,8.5c-1.3,2.5-3.1,4.6-5.4,6.2c-2.3,1.7-4.9,3-8,3.9s-6.3,1.3-9.7,1.3
		c-9.7,0-16.9-1.9-21.8-5.6c-4.9-3.7-7.4-9.3-7.7-16.6H845c0.1,3.4,1.5,6.1,4.2,8c2.7,2,6.1,3,10.1,3c4.4,0,7.7-0.8,10-2.4
		s3.4-3.8,3.4-6.5c0-1.1-0.1-2.1-0.4-3c-0.3-0.9-0.8-1.7-1.5-2.5c-0.8-0.7-1.8-1.4-3.2-1.9c-1.3-0.6-3.1-1.1-5.2-1.6
		c-5.1-1.1-9.5-2.1-13.2-3.2s-6.8-2.5-9.2-4.1s-4.2-3.6-5.3-6c-1.1-2.3-1.7-5.3-1.7-8.9c0-2.7,0.5-5.3,1.5-7.7s2.5-4.5,4.6-6.2
		c2.1-1.8,4.6-3.2,7.6-4.2s6.6-1.6,10.8-1.6c4,0,7.6,0.5,10.8,1.6c3.2,1,5.9,2.5,8.2,4.4s4.1,4.2,5.3,6.9c1.3,2.7,2,5.7,2.1,9h-13.1
		V90.8z"/>
	<path d="M894,137.6V71.2h13.9v66.4H894z"/>
	<path d="M966.9,137.6l-0.3-6.6c-1.6,2.8-4.2,5-7.7,6.6s-7.6,2.3-12.2,2.3c-4.6,0-8.8-1-12.4-2.9c-3.7-2-6.9-4.6-9.5-7.9
		c-2.6-3.3-4.7-7.1-6.1-11.4c-1.4-4.3-2.1-8.8-2.1-13.3c0-4.9,0.7-9.5,2.1-13.8c1.4-4.3,3.5-8.1,6.2-11.2c2.7-3.2,6.1-5.7,10.2-7.6
		c4.1-1.8,8.8-2.8,14.2-2.8c3.9,0,7.6,0.6,11,1.7s6.4,2.7,9,4.7s4.6,4.4,6.2,7.2c1.6,2.8,2.5,5.8,2.8,9.1h-14
		c-0.2-1.5-0.7-3-1.6-4.4c-0.9-1.4-2-2.5-3.3-3.5s-2.9-1.8-4.6-2.4c-1.8-0.6-3.6-0.9-5.5-0.9c-5.6,0-10.1,2.1-13.5,6.2
		c-3.4,4.2-5,10.2-5,18.1c0,2.7,0.3,5.5,1,8.2c0.7,2.8,1.8,5.3,3.3,7.5s3.4,4.1,5.8,5.5c2.3,1.4,5.1,2.1,8.3,2.1
		c2.3,0,4.4-0.4,6.4-1.2c2-0.8,3.7-1.9,5.1-3.3c1.5-1.4,2.6-3,3.5-4.9c0.8-1.8,1.2-3.8,1.2-5.9h-14.7v-11.1h27.7v35.7h-11.5V137.6z"
		/>
	<path d="M1038.5,137.6L1010.1,93v44.6h-12.9V71.2h14.7l26.4,42.7V71.2h13v66.4H1038.5z"/>
	<path d="M1058,137.6l19-66.4h10.9l-19.2,66.4H1058z"/>
	<path d="M1134.5,71.2h14.2v44.3c0,8.1-2.4,14.1-7.1,18.2c-4.7,4.1-11.5,6.1-20.2,6.1c-8.1,0-14.5-1.9-19.2-5.8
		c-4.7-3.9-7-9.8-7-17.8v-45h14.1V115c0,4.1,1,7.4,3.1,9.8s5,3.6,8.8,3.6c8.9,0,13.3-4.3,13.3-12.9L1134.5,71.2L1134.5,71.2z"/>
	<path d="M1197.4,137.6l-12.7-22.8l-13.4,22.8h-16.2l21.5-33.9l-20.3-32.5h16.4l12,21.5l12.1-21.5h16.1l-20.2,31.9l21.6,34.5H1197.4
		z"/>
</g>
</svg>
