<?xml version="1.0" encoding="utf-8"?>
<!-- Generator: Adobe Illustrator 21.0.2, SVG Export Plug-In . SVG Version: 6.00 Build 0)  -->
<svg version="1.1" id="Lager_1" xmlns="http://www.w3.org/2000/svg" xmlns:xlink="http://www.w3.org/1999/xlink" x="0px" y="0px"
	 viewBox="0 0 1175 213" style="enable-background:new 0 0 1175 213;" xml:space="preserve">
<style type="text/css">
	.st0{fill:#00FFFF;}
	.st1{fill:#FFFF00;stroke:#FFFFFF;stroke-miterlimit:10;}
</style>
<rect y="0" class="st0" width="1172.7" height="213"/>
<g>
	<g>
		<path class="st1" d="M242.9,115.2v41h-20.3V59h69.2v17h-48.9v22.1h42.7v17.1H242.9z"/>
		<path class="st1" d="M359.7,156.2v-25c0-4.7-1.1-8-3.2-10c-2.1-2-6.1-3-12-3h-21.7v38h-19.8V59h49.3c4.5,0,8.6,0.7,12.2,2.1
			c3.7,1.4,6.8,3.4,9.4,5.9s4.7,5.5,6.1,8.9c1.4,3.5,2.1,7.2,2.1,11.2c0,5.3-1.2,9.9-3.7,14c-2.5,4-6.1,6.9-10.8,8.6
			c4.3,1.4,7.3,3.5,9.1,6.3c1.8,2.8,2.7,7.1,2.7,12.7v27.5H359.7z M322.8,75.9v25.9h25.5c5.5,0,9.3-1.2,11.6-3.7
			c2.2-2.4,3.4-5.5,3.4-9.2c0-3.8-1.1-6.9-3.3-9.4c-2.2-2.4-5.8-3.7-10.9-3.7H322.8z"/>
		<path class="st1" d="M439.7,159.6c-15,0-26.6-4.4-34.6-13.2s-12.1-21.4-12.1-37.9c0-8.2,1-15.6,3.1-22.1c2-6.5,5.1-12.1,9.1-16.6
			c4-4.5,8.9-8,14.6-10.4c5.8-2.4,12.4-3.6,19.9-3.6c7.4,0,14,1.2,19.8,3.6c5.8,2.4,10.7,5.9,14.6,10.5c3.9,4.6,6.9,10.2,8.9,16.8
			s3.1,14,3.1,22.3c0,16.8-4,29.4-11.9,37.9C466.3,155.3,454.8,159.6,439.7,159.6z M439.7,142.2c3.6,0,7-0.7,10.2-2
			c3.2-1.3,6-3.3,8.4-6c2.4-2.7,4.3-6.1,5.6-10.3c1.4-4.2,2-9.2,2-14.9c0-11.5-2.2-20.2-6.7-26.2c-4.5-5.9-11-8.9-19.6-8.9
			c-8.6,0-15.2,3-19.8,8.9c-4.6,6-6.9,14.7-6.9,26.2c0,11.5,2.3,19.9,7,25.2C424.7,139.5,431.3,142.2,439.7,142.2z"/>
		<path class="st1" d="M559.4,156.2l-41.6-65.3v65.3H499V59h21.5l38.6,62.5V59h19v97.2H559.4z"/>
		<path class="st1" d="M618.6,156.2V76h-29.3V59h79v17h-29.4v80.2H618.6z"/>
		<path class="st1" d="M679.7,156.2V59h71.4v17h-51.7v20.8H747v17.1h-47.6v25h54v17.3H679.7z"/>
		<path class="st1" d="M824.6,156.2L783,90.9v65.3h-18.9V59h21.5l38.6,62.5V59h19v97.2H824.6z"/>
		<path class="st1" d="M857.2,156.2V59h37.6c6.5,0,12.6,1.1,18.1,3.3c5.6,2.2,10.3,5.3,14.3,9.4c4,4.1,7,9.1,9.3,14.9
			c2.2,5.9,3.4,12.5,3.4,19.9c0,7.4-1,14.2-3,20.3c-2,6.1-4.9,11.3-8.6,15.7c-3.7,4.3-8.1,7.7-13.3,10.1c-5.2,2.4-10.9,3.6-17.1,3.6
			H857.2z M893.8,139.7c8.9,0,15.3-2.8,19.3-8.3c4-5.5,6-13.8,6-24.8c0-5.5-0.5-10.1-1.5-14c-1-3.9-2.6-7.1-4.8-9.6s-5-4.3-8.4-5.4
			c-3.4-1.1-7.6-1.7-12.4-1.7H877v63.8H893.8z"/>
	</g>
	<g>
		<path d="M252.9,114.2v41h-20.3V58h69.2v17h-48.9v22.1h42.7v17.1H252.9z"/>
		<path d="M369.7,155.2v-25c0-4.7-1.1-8-3.2-10c-2.1-2-6.1-3-12-3h-21.7v38h-19.8V58h49.3c4.5,0,8.6,0.7,12.2,2.1
			c3.7,1.4,6.8,3.4,9.4,5.9s4.7,5.5,6.1,8.9c1.4,3.5,2.1,7.2,2.1,11.2c0,5.3-1.2,9.9-3.7,14c-2.5,4-6.1,6.9-10.8,8.6
			c4.3,1.4,7.3,3.5,9.1,6.3c1.8,2.8,2.7,7.1,2.7,12.7v27.5H369.7z M332.8,74.9v25.9h25.5c5.5,0,9.3-1.2,11.6-3.7
			c2.2-2.4,3.4-5.5,3.4-9.2c0-3.8-1.1-6.9-3.3-9.4c-2.2-2.4-5.8-3.7-10.9-3.7H332.8z"/>
		<path d="M449.7,158.6c-15,0-26.6-4.4-34.6-13.2s-12.1-21.4-12.1-37.9c0-8.2,1-15.6,3.1-22.1c2-6.5,5.1-12.1,9.1-16.6
			c4-4.5,8.9-8,14.6-10.4c5.8-2.4,12.4-3.6,19.9-3.6c7.4,0,14,1.2,19.8,3.6c5.8,2.4,10.7,5.9,14.6,10.5c3.9,4.6,6.9,10.2,8.9,16.8
			s3.1,14,3.1,22.3c0,16.8-4,29.4-11.9,37.9C476.3,154.3,464.8,158.6,449.7,158.6z M449.7,141.2c3.6,0,7-0.7,10.2-2
			c3.2-1.3,6-3.3,8.4-6c2.4-2.7,4.3-6.1,5.6-10.3c1.4-4.2,2-9.2,2-14.9c0-11.5-2.2-20.2-6.7-26.2c-4.5-5.9-11-8.9-19.6-8.9
			c-8.6,0-15.2,3-19.8,8.9c-4.6,6-6.9,14.7-6.9,26.2c0,11.5,2.3,19.9,7,25.2C434.7,138.5,441.3,141.2,449.7,141.2z"/>
		<path d="M569.4,155.2l-41.6-65.3v65.3H509V58h21.5l38.6,62.5V58h19v97.2H569.4z"/>
		<path d="M628.6,155.2V75h-29.3V58h79v17h-29.4v80.2H628.6z"/>
		<path d="M689.7,155.2V58h71.4v17h-51.7v20.8H757v17.1h-47.6v25h54v17.3H689.7z"/>
		<path d="M834.6,155.2L793,89.9v65.3h-18.9V58h21.5l38.6,62.5V58h19v97.2H834.6z"/>
		<path d="M867.2,155.2V58h37.6c6.5,0,12.6,1.1,18.1,3.3c5.6,2.2,10.3,5.3,14.3,9.4c4,4.1,7,9.1,9.3,14.9c2.2,5.9,3.4,12.5,3.4,19.9
			c0,7.4-1,14.2-3,20.3c-2,6.1-4.9,11.3-8.6,15.7c-3.7,4.3-8.1,7.7-13.3,10.1c-5.2,2.4-10.9,3.6-17.1,3.6H867.2z M903.8,138.7
			c8.9,0,15.3-2.8,19.3-8.3c4-5.5,6-13.8,6-24.8c0-5.5-0.5-10.1-1.5-14c-1-3.9-2.6-7.1-4.8-9.6s-5-4.3-8.4-5.4
			c-3.4-1.1-7.6-1.7-12.4-1.7H887v63.8H903.8z"/>
	</g>
</g>
</svg>
